<?xml version="1.0" encoding="utf-8" standalone="no"?>
<!DOCTYPE svg PUBLIC "-//W3C//DTD SVG 1.1//EN"
  "http://www.w3.org/Graphics/SVG/1.1/DTD/svg11.dtd">
<svg xmlns:xlink="http://www.w3.org/1999/xlink" width="370.1pt" height="247.985312pt" viewBox="0 0 370.1 247.985312" xmlns="http://www.w3.org/2000/svg" version="1.1">
 <metadata>
  <rdf:RDF xmlns:dc="http://purl.org/dc/elements/1.1/" xmlns:cc="http://creativecommons.org/ns#" xmlns:rdf="http://www.w3.org/1999/02/22-rdf-syntax-ns#">
   <cc:Work>
    <dc:type rdf:resource="http://purl.org/dc/dcmitype/StillImage"/>
    <dc:date>2023-05-02T01:39:47.805086</dc:date>
    <dc:format>image/svg+xml</dc:format>
    <dc:creator>
     <cc:Agent>
      <dc:title>Matplotlib v3.5.1, https://matplotlib.org/</dc:title>
     </cc:Agent>
    </dc:creator>
   </cc:Work>
  </rdf:RDF>
 </metadata>
 <defs>
  <style type="text/css">*{stroke-linejoin: round; stroke-linecap: butt}</style>
 </defs>
 <g id="figure_1">
  <g id="patch_1">
   <path d="M 0 247.985312 
L 370.1 247.985312 
L 370.1 0 
L 0 0 
L 0 247.985312 
z
" style="fill: none"/>
  </g>
  <g id="axes_1">
   <g id="patch_2">
    <path d="M 28.1 224.64 
L 362.9 224.64 
L 362.9 7.2 
L 28.1 7.2 
z
" style="fill: #ffffff"/>
   </g>
   <g id="matplotlib.axis_1">
    <g id="xtick_1">
     <g id="line2d_1">
      <path d="M 43.318182 224.64 
L 43.318182 7.2 
" clip-path="url(#pd8a05853b6)" style="fill: none; stroke: #cccccc; stroke-linecap: round"/>
     </g>
     <g id="line2d_2"/>
     <g id="text_1">
      <!-- 0.0 -->
      <g style="fill: #262626" transform="translate(36.368182 238.797812)scale(0.1 -0.1)">
       <defs>
        <path id="ArialMT-30" d="M 266 2259 
Q 266 3072 433 3567 
Q 600 4063 929 4331 
Q 1259 4600 1759 4600 
Q 2128 4600 2406 4451 
Q 2684 4303 2865 4023 
Q 3047 3744 3150 3342 
Q 3253 2941 3253 2259 
Q 3253 1453 3087 958 
Q 2922 463 2592 192 
Q 2263 -78 1759 -78 
Q 1097 -78 719 397 
Q 266 969 266 2259 
z
M 844 2259 
Q 844 1131 1108 757 
Q 1372 384 1759 384 
Q 2147 384 2411 759 
Q 2675 1134 2675 2259 
Q 2675 3391 2411 3762 
Q 2147 4134 1753 4134 
Q 1366 4134 1134 3806 
Q 844 3388 844 2259 
z
" transform="scale(0.015625)"/>
        <path id="ArialMT-2e" d="M 581 0 
L 581 641 
L 1222 641 
L 1222 0 
L 581 0 
z
" transform="scale(0.015625)"/>
       </defs>
       <use xlink:href="#ArialMT-30"/>
       <use xlink:href="#ArialMT-2e" x="55.615234"/>
       <use xlink:href="#ArialMT-30" x="83.398438"/>
      </g>
     </g>
    </g>
    <g id="xtick_2">
     <g id="line2d_3">
      <path d="M 104.190909 224.64 
L 104.190909 7.2 
" clip-path="url(#pd8a05853b6)" style="fill: none; stroke: #cccccc; stroke-linecap: round"/>
     </g>
     <g id="line2d_4"/>
     <g id="text_2">
      <!-- 0.2 -->
      <g style="fill: #262626" transform="translate(97.240909 238.797812)scale(0.1 -0.1)">
       <defs>
        <path id="ArialMT-32" d="M 3222 541 
L 3222 0 
L 194 0 
Q 188 203 259 391 
Q 375 700 629 1000 
Q 884 1300 1366 1694 
Q 2113 2306 2375 2664 
Q 2638 3022 2638 3341 
Q 2638 3675 2398 3904 
Q 2159 4134 1775 4134 
Q 1369 4134 1125 3890 
Q 881 3647 878 3216 
L 300 3275 
Q 359 3922 746 4261 
Q 1134 4600 1788 4600 
Q 2447 4600 2831 4234 
Q 3216 3869 3216 3328 
Q 3216 3053 3103 2787 
Q 2991 2522 2730 2228 
Q 2469 1934 1863 1422 
Q 1356 997 1212 845 
Q 1069 694 975 541 
L 3222 541 
z
" transform="scale(0.015625)"/>
       </defs>
       <use xlink:href="#ArialMT-30"/>
       <use xlink:href="#ArialMT-2e" x="55.615234"/>
       <use xlink:href="#ArialMT-32" x="83.398438"/>
      </g>
     </g>
    </g>
    <g id="xtick_3">
     <g id="line2d_5">
      <path d="M 165.063636 224.64 
L 165.063636 7.2 
" clip-path="url(#pd8a05853b6)" style="fill: none; stroke: #cccccc; stroke-linecap: round"/>
     </g>
     <g id="line2d_6"/>
     <g id="text_3">
      <!-- 0.4 -->
      <g style="fill: #262626" transform="translate(158.113636 238.797812)scale(0.1 -0.1)">
       <defs>
        <path id="ArialMT-34" d="M 2069 0 
L 2069 1097 
L 81 1097 
L 81 1613 
L 2172 4581 
L 2631 4581 
L 2631 1613 
L 3250 1613 
L 3250 1097 
L 2631 1097 
L 2631 0 
L 2069 0 
z
M 2069 1613 
L 2069 3678 
L 634 1613 
L 2069 1613 
z
" transform="scale(0.015625)"/>
       </defs>
       <use xlink:href="#ArialMT-30"/>
       <use xlink:href="#ArialMT-2e" x="55.615234"/>
       <use xlink:href="#ArialMT-34" x="83.398438"/>
      </g>
     </g>
    </g>
    <g id="xtick_4">
     <g id="line2d_7">
      <path d="M 225.936364 224.64 
L 225.936364 7.2 
" clip-path="url(#pd8a05853b6)" style="fill: none; stroke: #cccccc; stroke-linecap: round"/>
     </g>
     <g id="line2d_8"/>
     <g id="text_4">
      <!-- 0.6 -->
      <g style="fill: #262626" transform="translate(218.986364 238.797812)scale(0.1 -0.1)">
       <defs>
        <path id="ArialMT-36" d="M 3184 3459 
L 2625 3416 
Q 2550 3747 2413 3897 
Q 2184 4138 1850 4138 
Q 1581 4138 1378 3988 
Q 1113 3794 959 3422 
Q 806 3050 800 2363 
Q 1003 2672 1297 2822 
Q 1591 2972 1913 2972 
Q 2475 2972 2870 2558 
Q 3266 2144 3266 1488 
Q 3266 1056 3080 686 
Q 2894 316 2569 119 
Q 2244 -78 1831 -78 
Q 1128 -78 684 439 
Q 241 956 241 2144 
Q 241 3472 731 4075 
Q 1159 4600 1884 4600 
Q 2425 4600 2770 4297 
Q 3116 3994 3184 3459 
z
M 888 1484 
Q 888 1194 1011 928 
Q 1134 663 1356 523 
Q 1578 384 1822 384 
Q 2178 384 2434 671 
Q 2691 959 2691 1453 
Q 2691 1928 2437 2201 
Q 2184 2475 1800 2475 
Q 1419 2475 1153 2201 
Q 888 1928 888 1484 
z
" transform="scale(0.015625)"/>
       </defs>
       <use xlink:href="#ArialMT-30"/>
       <use xlink:href="#ArialMT-2e" x="55.615234"/>
       <use xlink:href="#ArialMT-36" x="83.398438"/>
      </g>
     </g>
    </g>
    <g id="xtick_5">
     <g id="line2d_9">
      <path d="M 286.809091 224.64 
L 286.809091 7.2 
" clip-path="url(#pd8a05853b6)" style="fill: none; stroke: #cccccc; stroke-linecap: round"/>
     </g>
     <g id="line2d_10"/>
     <g id="text_5">
      <!-- 0.8 -->
      <g style="fill: #262626" transform="translate(279.859091 238.797812)scale(0.1 -0.1)">
       <defs>
        <path id="ArialMT-38" d="M 1131 2484 
Q 781 2613 612 2850 
Q 444 3088 444 3419 
Q 444 3919 803 4259 
Q 1163 4600 1759 4600 
Q 2359 4600 2725 4251 
Q 3091 3903 3091 3403 
Q 3091 3084 2923 2848 
Q 2756 2613 2416 2484 
Q 2838 2347 3058 2040 
Q 3278 1734 3278 1309 
Q 3278 722 2862 322 
Q 2447 -78 1769 -78 
Q 1091 -78 675 323 
Q 259 725 259 1325 
Q 259 1772 486 2073 
Q 713 2375 1131 2484 
z
M 1019 3438 
Q 1019 3113 1228 2906 
Q 1438 2700 1772 2700 
Q 2097 2700 2305 2904 
Q 2513 3109 2513 3406 
Q 2513 3716 2298 3927 
Q 2084 4138 1766 4138 
Q 1444 4138 1231 3931 
Q 1019 3725 1019 3438 
z
M 838 1322 
Q 838 1081 952 856 
Q 1066 631 1291 507 
Q 1516 384 1775 384 
Q 2178 384 2440 643 
Q 2703 903 2703 1303 
Q 2703 1709 2433 1975 
Q 2163 2241 1756 2241 
Q 1359 2241 1098 1978 
Q 838 1716 838 1322 
z
" transform="scale(0.015625)"/>
       </defs>
       <use xlink:href="#ArialMT-30"/>
       <use xlink:href="#ArialMT-2e" x="55.615234"/>
       <use xlink:href="#ArialMT-38" x="83.398438"/>
      </g>
     </g>
    </g>
    <g id="xtick_6">
     <g id="line2d_11">
      <path d="M 347.681818 224.64 
L 347.681818 7.2 
" clip-path="url(#pd8a05853b6)" style="fill: none; stroke: #cccccc; stroke-linecap: round"/>
     </g>
     <g id="line2d_12"/>
     <g id="text_6">
      <!-- 1.0 -->
      <g style="fill: #262626" transform="translate(340.731818 238.797812)scale(0.1 -0.1)">
       <defs>
        <path id="ArialMT-31" d="M 2384 0 
L 1822 0 
L 1822 3584 
Q 1619 3391 1289 3197 
Q 959 3003 697 2906 
L 697 3450 
Q 1169 3672 1522 3987 
Q 1875 4303 2022 4600 
L 2384 4600 
L 2384 0 
z
" transform="scale(0.015625)"/>
       </defs>
       <use xlink:href="#ArialMT-31"/>
       <use xlink:href="#ArialMT-2e" x="55.615234"/>
       <use xlink:href="#ArialMT-30" x="83.398438"/>
      </g>
     </g>
    </g>
   </g>
   <g id="matplotlib.axis_2">
    <g id="ytick_1">
     <g id="line2d_13">
      <path d="M 28.1 194.131371 
L 362.9 194.131371 
" clip-path="url(#pd8a05853b6)" style="fill: none; stroke: #cccccc; stroke-linecap: round"/>
     </g>
     <g id="line2d_14"/>
     <g id="text_7">
      <!-- 0.2 -->
      <g style="fill: #262626" transform="translate(7.2 197.710278)scale(0.1 -0.1)">
       <use xlink:href="#ArialMT-30"/>
       <use xlink:href="#ArialMT-2e" x="55.615234"/>
       <use xlink:href="#ArialMT-32" x="83.398438"/>
      </g>
     </g>
    </g>
    <g id="ytick_2">
     <g id="line2d_15">
      <path d="M 28.1 149.869438 
L 362.9 149.869438 
" clip-path="url(#pd8a05853b6)" style="fill: none; stroke: #cccccc; stroke-linecap: round"/>
     </g>
     <g id="line2d_16"/>
     <g id="text_8">
      <!-- 0.4 -->
      <g style="fill: #262626" transform="translate(7.2 153.448344)scale(0.1 -0.1)">
       <use xlink:href="#ArialMT-30"/>
       <use xlink:href="#ArialMT-2e" x="55.615234"/>
       <use xlink:href="#ArialMT-34" x="83.398438"/>
      </g>
     </g>
    </g>
    <g id="ytick_3">
     <g id="line2d_17">
      <path d="M 28.1 105.607504 
L 362.9 105.607504 
" clip-path="url(#pd8a05853b6)" style="fill: none; stroke: #cccccc; stroke-linecap: round"/>
     </g>
     <g id="line2d_18"/>
     <g id="text_9">
      <!-- 0.6 -->
      <g style="fill: #262626" transform="translate(7.2 109.18641)scale(0.1 -0.1)">
       <use xlink:href="#ArialMT-30"/>
       <use xlink:href="#ArialMT-2e" x="55.615234"/>
       <use xlink:href="#ArialMT-36" x="83.398438"/>
      </g>
     </g>
    </g>
    <g id="ytick_4">
     <g id="line2d_19">
      <path d="M 28.1 61.34557 
L 362.9 61.34557 
" clip-path="url(#pd8a05853b6)" style="fill: none; stroke: #cccccc; stroke-linecap: round"/>
     </g>
     <g id="line2d_20"/>
     <g id="text_10">
      <!-- 0.8 -->
      <g style="fill: #262626" transform="translate(7.2 64.924476)scale(0.1 -0.1)">
       <use xlink:href="#ArialMT-30"/>
       <use xlink:href="#ArialMT-2e" x="55.615234"/>
       <use xlink:href="#ArialMT-38" x="83.398438"/>
      </g>
     </g>
    </g>
    <g id="ytick_5">
     <g id="line2d_21">
      <path d="M 28.1 17.083636 
L 362.9 17.083636 
" clip-path="url(#pd8a05853b6)" style="fill: none; stroke: #cccccc; stroke-linecap: round"/>
     </g>
     <g id="line2d_22"/>
     <g id="text_11">
      <!-- 1.0 -->
      <g style="fill: #262626" transform="translate(7.2 20.662543)scale(0.1 -0.1)">
       <use xlink:href="#ArialMT-31"/>
       <use xlink:href="#ArialMT-2e" x="55.615234"/>
       <use xlink:href="#ArialMT-30" x="83.398438"/>
      </g>
     </g>
    </g>
   </g>
   <g id="line2d_23">
    <path d="M 347.681818 205.276307 
L 345.524388 205.276307 
L 345.524388 193.091495 
L 345.358432 193.091495 
L 345.358432 192.983655 
L 345.358432 190.545408 
L 345.192475 190.545408 
L 345.192475 190.434967 
L 345.192475 189.909349 
L 345.026519 189.909349 
L 345.026519 189.8014 
L 345.026519 189.440759 
L 344.860563 189.440759 
L 344.860563 189.330388 
L 344.860563 188.595204 
L 344.694607 188.595204 
L 344.694607 188.486642 
L 344.694607 187.202583 
L 344.362695 187.158988 
L 344.362695 187.095613 
L 344.362695 186.605929 
L 344.196738 186.605929 
L 344.196738 186.500596 
L 344.196738 185.724044 
L 343.864826 185.642303 
L 343.864826 185.615874 
L 343.864826 185.315327 
L 343.69887 185.315327 
L 343.69887 185.210817 
L 343.69887 184.991025 
L 343.532914 184.991025 
L 343.532914 184.892144 
L 343.532914 184.834885 
L 343.366957 184.834885 
L 343.366957 184.728085 
L 343.366957 184.248802 
L 343.201001 184.248802 
L 343.201001 184.139259 
L 343.201001 183.991649 
L 343.035045 183.991649 
L 343.035045 183.880858 
L 343.035045 183.271907 
L 342.869089 183.271907 
L 342.869089 183.165329 
L 342.869089 182.273053 
L 342.537177 182.169866 
L 342.537177 182.169361 
L 342.537177 181.890709 
L 342.37122 181.890709 
L 342.37122 181.785779 
L 342.37122 181.291355 
L 342.205264 181.291355 
L 342.205264 181.183787 
L 342.205264 180.820185 
L 341.873352 180.710507 
L 341.873352 180.709142 
L 341.873352 180.684058 
L 341.707396 180.684058 
L 341.707396 180.573662 
L 341.707396 180.447363 
L 341.541439 180.447363 
L 341.541439 180.344338 
L 341.541439 179.900369 
L 341.375483 179.900369 
L 341.375483 179.795021 
L 341.375483 179.743141 
L 341.209527 179.743141 
L 341.209527 179.637078 
L 341.209527 179.541327 
L 341.043571 179.541327 
L 341.043571 179.434359 
L 341.043571 178.877559 
L 340.711659 178.875046 
L 340.711659 178.774104 
L 340.711659 178.684343 
L 340.545702 178.684343 
L 340.545702 178.573562 
L 340.545702 178.410615 
L 340.21379 178.335042 
L 340.21379 178.304825 
L 340.21379 178.085156 
L 340.047834 178.085156 
L 340.047834 177.980834 
L 340.047834 177.777238 
L 339.881878 177.777238 
L 339.881878 177.671614 
L 339.881878 177.163954 
L 339.715921 177.163954 
L 339.715921 177.055771 
L 339.715921 176.720803 
L 339.549965 176.720803 
L 339.549965 176.610734 
L 339.549965 176.60107 
L 339.384009 176.60107 
L 339.384009 176.490444 
L 339.384009 175.724028 
L 339.052097 175.649604 
L 339.052097 175.614918 
L 339.052097 175.222741 
L 338.886141 175.222741 
L 338.886141 175.116291 
L 338.886141 175.085801 
L 338.720184 175.085801 
L 338.720184 174.978751 
L 338.720184 174.276897 
L 338.554228 174.276897 
L 338.554228 174.166568 
L 338.554228 173.871853 
L 338.05636 173.764335 
L 338.05636 173.768844 
L 338.05636 173.566327 
L 337.724447 173.581449 
L 337.724447 173.457256 
L 337.724447 173.414266 
L 337.558491 173.414266 
L 337.558491 173.310863 
L 337.558491 173.083378 
L 337.392535 173.083378 
L 337.392535 172.978671 
L 337.392535 172.891262 
L 337.226579 172.891262 
L 337.226579 172.785769 
L 337.226579 172.47682 
L 337.060623 172.47682 
L 337.060623 172.369689 
L 337.060623 172.112745 
L 336.894666 172.112745 
L 336.894666 172.004158 
L 336.894666 168.307948 
L 336.562754 168.284813 
L 336.562754 168.198693 
L 336.562754 168.160873 
L 336.230842 168.074328 
L 336.230842 168.050866 
L 336.230842 167.898527 
L 336.064885 167.898527 
L 336.064885 167.798322 
L 336.064885 167.451954 
L 335.898929 167.451954 
L 335.898929 167.363095 
L 335.898929 165.722613 
L 335.732973 165.722613 
L 335.732973 165.614724 
L 335.732973 165.191196 
L 335.567017 165.191196 
L 335.567017 165.081355 
L 335.567017 164.300848 
L 335.401061 164.300848 
L 335.401061 164.201873 
L 335.401061 163.804064 
L 335.235105 163.804064 
L 335.235105 163.703415 
L 335.235105 162.16779 
L 335.069148 162.16779 
L 335.069148 162.06166 
L 335.069148 160.424889 
L 334.903192 160.424889 
L 334.903192 160.328441 
L 334.903192 159.616748 
L 334.737236 159.616748 
L 334.737236 159.517767 
L 334.737236 159.437641 
L 334.405324 159.33805 
L 334.405324 159.334821 
L 334.405324 158.041999 
L 334.239368 158.041999 
L 334.239368 157.937924 
L 334.239368 157.720432 
L 334.073411 157.720432 
L 334.073411 157.615276 
L 334.073411 157.463533 
L 333.907455 157.463533 
L 333.907455 157.357498 
L 333.907455 157.272679 
L 333.741499 157.272679 
L 333.741499 157.165973 
L 333.741499 155.301282 
L 333.575543 155.301282 
L 333.575543 155.205983 
L 333.575543 155.062711 
L 333.409587 155.062711 
L 333.409587 154.966671 
L 333.409587 154.020502 
L 332.41385 154.020502 
L 332.41385 151.856505 
L 332.247893 151.856505 
L 332.247893 151.750595 
L 332.247893 151.574889 
L 332.081937 151.574889 
L 332.081937 151.468063 
L 332.081937 151.152974 
L 331.915981 151.152974 
L 331.915981 151.0448 
L 331.915981 150.945563 
L 331.750025 150.945563 
L 331.750025 150.836691 
L 331.750025 150.113249 
L 331.584069 150.113249 
L 331.584069 150.022065 
L 331.584069 149.818445 
L 331.418112 149.818445 
L 331.418112 149.726427 
L 331.418112 149.418413 
L 331.252156 149.418413 
L 331.252156 149.325276 
L 331.252156 149.014284 
L 331.0862 149.014284 
L 331.0862 148.920009 
L 331.0862 148.205064 
L 330.920244 148.205064 
L 330.920244 148.108546 
L 330.920244 147.617055 
L 330.754288 147.617055 
L 330.754288 147.518875 
L 330.754288 146.802303 
L 330.588332 146.802303 
L 330.588332 146.701817 
L 330.588332 146.349327 
L 330.422375 146.349327 
L 330.422375 146.247523 
L 330.422375 146.025217 
L 330.256419 146.025217 
L 330.256419 145.922446 
L 330.256419 145.78817 
L 329.924507 145.819326 
L 329.924507 145.693378 
L 329.924507 145.670889 
L 329.758551 145.670889 
L 329.758551 145.566941 
L 329.758551 142.945907 
L 329.426638 142.953511 
L 329.426638 142.841623 
L 329.426638 142.817687 
L 329.260682 142.817687 
L 329.260682 142.729342 
L 329.260682 142.149853 
L 329.094726 142.149853 
L 329.094726 142.059825 
L 329.094726 141.889064 
L 328.92877 141.889064 
L 328.92877 141.798342 
L 328.92877 141.675697 
L 328.762814 141.675697 
L 328.762814 141.584396 
L 328.762814 141.436446 
L 328.596857 141.436446 
L 328.596857 141.344499 
L 328.596857 140.24281 
L 328.430901 140.24281 
L 328.430901 140.147824 
L 328.430901 139.791124 
L 328.098989 139.720571 
L 328.098989 139.701156 
L 328.098989 139.055771 
L 327.933033 139.055771 
L 327.933033 138.957601 
L 327.933033 138.328427 
L 327.103252 138.271453 
L 327.103252 138.224027 
L 327.103252 138.064691 
L 326.937296 138.064691 
L 326.937296 137.963612 
L 326.937296 137.562001 
L 326.605383 137.486494 
L 326.605383 137.464744 
L 326.605383 136.04283 
L 326.439427 136.04283 
L 326.439427 135.936237 
L 326.439427 135.377127 
L 326.107515 135.409412 
L 326.107515 135.272803 
L 326.107515 135.244597 
L 325.941558 135.244597 
L 325.941558 135.135671 
L 325.941558 134.337434 
L 325.775602 134.337434 
L 325.775602 134.254777 
L 325.775602 133.559168 
L 325.44369 133.533209 
L 325.44369 133.448692 
L 325.44369 133.390113 
L 325.277734 133.390113 
L 325.277734 133.305232 
L 325.277734 132.773887 
L 325.111778 132.773887 
L 325.111778 132.68759 
L 325.111778 132.598312 
L 324.945821 132.598312 
L 324.945821 132.511572 
L 324.945821 132.152143 
L 324.779865 132.152143 
L 324.779865 132.064354 
L 324.779865 132.034224 
L 323.950084 132.07418 
L 323.950084 131.92541 
L 323.950084 131.895112 
L 323.784128 131.895112 
L 323.784128 131.806431 
L 323.784128 131.348846 
L 323.618172 131.348846 
L 323.618172 131.258874 
L 323.618172 131.105122 
L 323.28626 131.137858 
L 323.28626 131.016425 
L 323.28626 130.923699 
L 323.120303 130.923699 
L 323.120303 130.832596 
L 323.120303 130.615113 
L 322.788391 130.554441 
L 322.788391 130.524859 
L 322.788391 130.211743 
L 322.456479 130.118836 
L 322.456479 130.120221 
L 322.456479 130.057198 
L 322.124566 130.090087 
L 322.124566 129.965121 
L 322.124566 129.933491 
L 321.460742 129.905637 
L 321.460742 129.843406 
L 321.460742 129.74802 
L 320.796917 129.655838 
L 320.796917 129.656965 
L 320.796917 129.432832 
L 320.630961 129.432832 
L 320.630961 129.337435 
L 320.630961 129.111846 
L 319.80118 129.082722 
L 319.80118 129.018666 
L 319.80118 128.921242 
L 319.635224 128.921242 
L 319.635224 128.82429 
L 319.635224 128.75909 
L 319.469267 128.75909 
L 319.469267 128.661694 
L 319.469267 128.628987 
L 318.639486 128.532644 
L 318.639486 128.53312 
L 318.639486 128.170327 
L 317.809706 128.237666 
L 317.809706 128.071969 
L 317.809706 127.972131 
L 317.477793 127.905573 
L 317.477793 127.872274 
L 317.477793 127.301366 
L 317.311837 127.301366 
L 317.311837 127.199677 
L 317.311837 126.347226 
L 316.813968 126.345518 
L 316.813968 126.241296 
L 316.813968 125.999366 
L 316.648012 125.999366 
L 316.648012 125.894224 
L 316.648012 125.789961 
L 316.3161 125.788757 
L 316.3161 125.682963 
L 316.3161 125.543211 
L 315.818231 125.47039 
L 315.818231 125.433878 
L 315.818231 125.398754 
L 315.486319 125.397298 
L 315.486319 125.290202 
L 315.486319 125.219667 
L 315.154407 125.11206 
L 315.154407 125.110418 
L 315.154407 124.719665 
L 314.98845 124.719665 
L 314.98845 124.610665 
L 314.98845 123.891432 
L 314.822494 123.891432 
L 314.822494 123.816527 
L 314.822494 123.489269 
L 314.656538 123.489269 
L 314.656538 123.413544 
L 314.656538 123.230572 
L 314.490582 123.230572 
L 314.490582 123.1543 
L 314.490582 123.080806 
L 313.826757 123.108709 
L 313.826757 122.995109 
L 313.826757 122.810236 
L 313.494845 122.807075 
L 313.494845 122.729697 
L 313.494845 122.543742 
L 313.162932 122.4658 
L 313.162932 122.462403 
L 313.162932 122.350248 
L 312.499108 122.339802 
L 312.499108 122.261218 
L 312.499108 122.148395 
L 312.333152 122.148395 
L 312.333152 122.069384 
L 312.333152 121.993898 
L 312.167195 121.993898 
L 312.167195 121.914532 
L 312.167195 121.649032 
L 311.835283 121.568932 
L 311.835283 121.564906 
L 311.835283 121.37401 
L 311.171458 121.361506 
L 311.171458 121.280582 
L 311.171458 120.933981 
L 310.839546 120.890838 
L 310.839546 120.84761 
L 310.839546 120.575873 
L 310.507634 120.532189 
L 310.507634 120.488419 
L 310.507634 120.214676 
L 310.341677 120.214676 
L 310.341677 120.131181 
L 310.341677 119.539081 
L 309.843809 119.488378 
L 309.843809 119.443062 
L 309.843809 119.323514 
L 309.014028 119.3009 
L 309.014028 119.215108 
L 309.014028 119.175008 
L 308.848072 119.175008 
L 308.848072 119.088902 
L 308.848072 118.847232 
L 308.682116 118.847232 
L 308.682116 118.760391 
L 308.682116 118.435963 
L 308.018291 118.335443 
L 308.018291 118.329046 
L 308.018291 117.713332 
L 307.520422 117.782186 
L 307.520422 117.609969 
L 307.520422 117.485621 
L 306.856598 117.589092 
L 306.856598 117.62363 
L 306.856598 117.457395 
L 306.690641 117.457395 
L 306.690641 117.366963 
L 306.690641 117.074326 
L 306.358729 117.108877 
L 306.358729 116.975574 
L 306.358729 116.553838 
L 306.192773 116.553838 
L 306.192773 116.4613 
L 306.192773 116.333934 
L 306.026817 116.333934 
L 306.026817 116.240862 
L 306.026817 116.070259 
L 305.860861 116.070259 
L 305.860861 115.976558 
L 305.860861 115.547026 
L 305.694904 115.547026 
L 305.694904 115.452129 
L 305.694904 115.23576 
L 305.528948 115.23576 
L 305.528948 115.140123 
L 305.528948 114.966098 
L 304.533211 114.877101 
L 304.533211 114.867979 
L 304.533211 114.692517 
L 303.869386 114.664661 
L 303.869386 114.611267 
L 303.869386 114.390386 
L 303.205562 114.406086 
L 303.205562 114.307755 
L 303.205562 113.772327 
L 302.209825 113.811844 
L 302.209825 113.666758 
L 302.209825 113.486256 
L 302.043868 113.486256 
L 302.043868 113.385416 
L 302.043868 113.24939 
L 301.546 113.182857 
L 301.546 113.172271 
L 301.546 112.944181 
L 301.380044 112.944181 
L 301.380044 112.841851 
L 301.380044 112.79603 
L 301.214087 112.79603 
L 301.214087 112.693296 
L 301.214087 112.278444 
L 301.048131 112.278444 
L 301.048131 112.17446 
L 301.048131 111.802544 
L 300.716219 111.837444 
L 300.716219 111.73231 
L 300.716219 111.685555 
L 300.052394 111.790435 
L 300.052394 111.825447 
L 300.052394 111.638008 
L 299.554526 111.661119 
L 299.554526 111.555099 
L 299.554526 111.129943 
L 297.729008 111.065591 
L 297.729008 110.801082 
L 43.318182 110.692208 
L 43.318182 17.083636 
L 43.318182 17.083636 
" clip-path="url(#pd8a05853b6)" style="fill: none; stroke: #e41a1c; stroke-opacity: 0.8; stroke-width: 1.75; stroke-linecap: round"/>
   </g>
   <g id="line2d_24">
    <path d="M 347.681818 214.756364 
L 340.706334 214.756364 
L 340.706334 177.988895 
L 340.241301 177.907044 
L 340.241301 177.889677 
L 340.241301 177.694756 
L 340.008785 177.694756 
L 340.008785 177.585567 
L 340.008785 177.441193 
L 339.776269 177.441193 
L 339.776269 177.330802 
L 339.776269 176.608802 
L 339.543753 176.608802 
L 339.543753 176.508205 
L 339.543753 176.453824 
L 339.311237 176.453824 
L 339.311237 176.352519 
L 339.311237 175.465629 
L 339.078721 175.465629 
L 339.078721 175.360189 
L 339.078721 174.341906 
L 338.846205 174.341906 
L 338.846205 174.231675 
L 338.846205 173.789587 
L 338.613688 173.825587 
L 338.613688 173.691814 
L 338.613688 172.104796 
L 337.683624 172.152022 
L 337.683624 172.000405 
L 337.683624 171.921647 
L 337.451108 171.921647 
L 337.451108 171.816199 
L 337.451108 171.096014 
L 337.218592 171.133045 
L 337.218592 170.98718 
L 337.218592 170.331159 
L 336.986075 170.331159 
L 336.986075 170.235755 
L 336.986075 169.733489 
L 336.753559 169.733489 
L 336.753559 169.635845 
L 336.753559 168.395109 
L 336.521043 168.395109 
L 336.521043 168.292453 
L 336.521043 167.436913 
L 336.288527 167.436913 
L 336.288527 167.330568 
L 336.288527 166.077386 
L 336.056011 166.116036 
L 336.056011 165.984554 
L 336.056011 165.965732 
L 335.590979 165.96678 
L 335.590979 165.873427 
L 335.590979 165.835597 
L 335.358462 165.835597 
L 335.358462 165.741726 
L 335.358462 165.513142 
L 335.125946 165.513142 
L 335.125946 165.418099 
L 335.125946 165.206577 
L 334.660914 165.187733 
L 334.660914 165.110796 
L 334.660914 165.072043 
L 334.428398 165.072043 
L 334.428398 164.975259 
L 334.428398 164.741071 
L 334.195882 164.741071 
L 334.195882 164.643067 
L 334.195882 164.068904 
L 333.730849 163.988495 
L 333.730849 163.967948 
L 333.730849 163.887705 
L 332.335752 163.783758 
L 332.335752 163.783075 
L 332.335752 163.661461 
L 332.103236 163.661461 
L 332.103236 163.558944 
L 332.103236 162.755823 
L 331.87072 162.755823 
L 331.87072 162.64998 
L 331.87072 162.272103 
L 331.638204 162.272103 
L 331.638204 162.164419 
L 331.638204 162.037159 
L 43.318182 162.037159 
L 43.318182 17.083636 
L 43.318182 17.083636 
" clip-path="url(#pd8a05853b6)" style="fill: none; stroke: #4daf4a; stroke-opacity: 0.8; stroke-width: 1.75; stroke-linecap: round"/>
   </g>
   <g id="line2d_25">
    <path d="M 347.681818 163.726572 
L 341.278037 163.726572 
L 341.20443 141.776236 
L 341.057217 141.727115 
L 341.057217 141.667469 
L 340.98361 141.57631 
L 340.689183 141.564335 
L 340.689183 141.472865 
L 340.615577 141.412753 
L 340.54197 141.412753 
L 340.54197 141.310367 
L 340.468363 141.101883 
L 340.247543 141.054684 
L 340.247543 140.993872 
L 340.173936 140.783737 
L 340.10033 140.783737 
L 340.10033 140.679706 
L 340.026723 140.360418 
L 339.805903 140.34441 
L 339.805903 140.250033 
L 339.732296 140.090411 
L 339.585083 140.060591 
L 339.585083 139.987272 
L 339.511476 139.815698 
L 339.143443 139.728021 
L 339.143443 139.708787 
L 339.069836 139.656658 
L 338.922623 139.549527 
L 338.922623 139.552154 
L 338.849016 139.400622 
L 338.701803 139.414251 
L 338.701803 139.295369 
L 338.628196 139.264759 
L 338.186556 139.177838 
L 338.186556 139.158188 
L 338.186556 139.080374 
L 338.112949 139.094042 
L 337.744916 139.026233 
L 337.744916 138.984133 
L 337.671309 138.863687 
L 337.524096 138.765329 
L 337.524096 138.756591 
L 337.450489 138.646696 
L 337.229669 138.550222 
L 337.229669 138.541383 
L 337.229669 138.360533 
L 337.156062 138.362939 
L 337.008849 138.320012 
L 337.008849 138.254319 
L 336.935242 138.131605 
L 336.861636 138.131605 
L 336.861636 138.031359 
L 336.788029 137.976593 
L 336.199176 137.901294 
L 336.199176 137.869199 
L 336.199176 137.823276 
L 336.125569 137.82558 
L 335.904749 137.715131 
L 335.904749 137.717414 
L 335.831142 137.569664 
L 335.536715 137.472233 
L 335.536715 137.462876 
L 335.463109 137.115999 
L 335.315895 137.012935 
L 335.315895 137.015077 
L 335.242289 137.01722 
L 335.242289 136.511222 
L 335.168682 136.511222 
L 335.168682 136.40669 
L 335.168682 136.347389 
L 335.095075 136.36126 
L 334.727042 136.274185 
L 334.727042 136.252366 
L 334.653435 136.254351 
L 334.653435 136.218609 
L 334.432615 136.150978 
L 334.432615 136.117103 
L 334.359008 135.951438 
L 333.843762 135.878865 
L 333.843762 135.844671 
L 333.770155 135.605175 
L 333.402122 135.515627 
L 333.402122 135.505325 
L 333.402122 135.43245 
L 333.328515 135.446423 
L 333.254908 135.446423 
L 333.254908 135.338714 
L 333.254908 135.167872 
L 333.181302 135.169632 
L 332.666055 135.082179 
L 332.666055 135.059381 
L 332.666055 135.047106 
L 332.592448 135.061121 
L 331.856381 134.990635 
L 331.856381 134.955377 
L 331.856381 134.943043 
L 331.782775 134.957099 
L 331.782775 134.944761 
L 331.267528 134.918011 
L 331.267528 134.845473 
L 331.193921 134.636159 
L 331.120314 134.636159 
L 331.120314 134.525726 
L 331.046708 134.39 
L 330.237034 134.280564 
L 330.237034 134.282143 
L 330.163428 133.993865 
L 329.942607 133.920979 
L 329.942607 133.884471 
L 329.869001 133.871795 
L 329.869001 133.885962 
L 329.869001 133.873283 
L 329.721787 133.79862 
L 329.721787 133.774678 
L 329.648181 133.776145 
L 329.648181 133.71254 
L 329.280147 133.718357 
L 329.280147 133.604998 
L 329.280147 133.541102 
L 329.206541 133.542518 
L 329.132934 133.542518 
L 329.132934 133.441492 
L 329.059327 133.365905 
L 328.912114 133.277307 
L 328.912114 133.265794 
L 328.912114 133.188513 
L 328.838507 133.189849 
L 328.691294 133.113755 
L 328.691294 133.089232 
L 328.617687 133.090546 
L 328.617687 133.038813 
L 328.10244 132.929887 
L 328.10244 132.931166 
L 328.028834 132.789333 
L 327.366374 132.6948 
L 327.366374 132.682944 
L 327.366374 132.643675 
L 327.292767 132.657986 
L 326.99834 132.556713 
L 326.99834 132.557908 
L 326.99834 132.544774 
L 326.924733 132.559105 
L 326.924733 132.545967 
L 326.483093 132.525627 
L 326.483093 132.447773 
L 326.409487 132.369764 
L 325.820633 132.285173 
L 325.820633 132.259792 
L 325.820633 132.246528 
L 325.747026 132.260922 
L 325.158173 132.202372 
L 325.158173 132.150236 
L 325.084566 131.977853 
L 323.833253 131.900948 
L 323.833253 131.8751 
L 323.759646 131.768389 
L 323.318006 131.692432 
L 323.318006 131.666381 
L 323.244399 131.667377 
L 323.244399 131.599666 
L 322.729152 131.564827 
L 322.729152 131.497835 
L 322.655546 131.498792 
L 322.655546 131.430723 
L 322.287512 131.325292 
L 322.287512 131.326207 
L 322.213906 131.327124 
L 322.213906 131.299776 
L 321.919479 131.192895 
L 321.919479 131.193779 
L 321.919479 131.180059 
L 321.845872 131.194664 
L 321.845872 131.18094 
L 321.183412 131.077868 
L 321.183412 131.078726 
L 321.109805 131.079584 
L 321.109805 130.996791 
L 320.668165 130.945651 
L 320.668165 130.891071 
L 320.594559 130.808646 
L 320.300132 130.713678 
L 320.300132 130.700523 
L 320.226525 130.56181 
L 319.932098 130.52206 
L 319.932098 130.452781 
L 319.858492 130.144324 
L 319.343245 130.049196 
L 319.343245 130.035653 
L 319.269638 129.993782 
L 318.901605 129.996142 
L 318.901605 129.883169 
L 318.827998 129.755654 
L 318.680785 129.756183 
L 318.680785 129.656837 
L 318.607178 129.370892 
L 318.459965 129.356956 
L 318.459965 129.271086 
L 318.459965 129.25669 
L 318.386358 129.271491 
L 318.386358 129.257091 
L 317.797505 129.158812 
L 317.797505 129.159188 
L 317.797505 128.854713 
L 317.723898 128.855009 
L 317.429471 128.768503 
L 317.429471 128.754193 
L 317.429471 128.739606 
L 317.355865 128.754463 
L 317.061438 128.755275 
L 317.061438 128.653217 
L 316.987831 128.594887 
L 316.546191 128.566681 
L 316.546191 128.49344 
L 316.472584 128.420062 
L 316.178158 128.317349 
L 316.178158 128.317505 
L 316.104551 128.31766 
L 316.104551 128.273322 
L 315.957338 128.169845 
L 315.957338 128.169961 
L 315.957338 128.155138 
L 315.883731 128.170077 
L 315.442091 128.111247 
L 315.442091 128.066735 
L 315.368484 127.947648 
L 314.926844 127.888166 
L 314.926844 127.843329 
L 314.926844 127.813389 
L 314.853237 127.81341 
L 314.485204 127.708434 
L 314.485204 127.708426 
L 314.485204 127.693398 
L 314.411597 127.708418 
L 314.11717 127.693349 
L 314.11717 127.602957 
L 314.043564 127.512368 
L 313.381104 127.436135 
L 313.381104 127.40572 
L 313.307497 127.299304 
L 312.865857 127.192027 
L 312.865857 127.191877 
L 312.79225 127.069494 
L 312.57143 126.992552 
L 312.57143 126.961678 
L 312.57143 126.884935 
L 312.497823 126.900061 
L 311.982577 126.867894 
L 311.982577 126.806029 
L 311.90897 126.728623 
L 43.318182 126.728344 
L 43.318182 17.083636 
L 43.318182 17.083636 
" clip-path="url(#pd8a05853b6)" style="fill: none; stroke: #ff7f00; stroke-opacity: 0.8; stroke-width: 1.75; stroke-linecap: round"/>
   </g>
   <g id="line2d_26">
    <path d="M 347.681818 186.099506 
L 345.369663 186.099506 
L 345.369663 171.300058 
L 345.264566 171.30925 
L 345.159468 171.30925 
L 345.159468 171.205 
L 345.05437 170.496312 
L 344.949272 170.496312 
L 344.949272 170.389156 
L 344.844174 170.281587 
L 344.318684 170.230308 
L 344.318684 170.173427 
L 344.213586 169.545149 
L 344.00339 169.516808 
L 344.00339 169.435893 
L 343.898292 169.354731 
L 343.793194 169.354731 
L 343.793194 169.25066 
L 343.793194 168.969963 
L 343.688096 168.98663 
L 343.267705 168.952806 
L 343.267705 168.877809 
L 343.162607 168.625738 
L 342.637117 168.615611 
L 342.637117 168.516372 
L 342.532019 168.190673 
L 342.111627 168.123717 
L 342.111627 168.08563 
L 342.111627 167.951815 
L 342.006529 167.968708 
L 341.691236 167.899871 
L 341.691236 167.861407 
L 341.586138 167.432189 
L 341.48104 167.432189 
L 341.48104 167.328729 
L 341.375942 167.16836 
L 341.165746 167.185393 
L 341.165746 167.064794 
L 341.060648 166.984388 
L 340.95555 166.984388 
L 340.95555 166.879273 
L 340.850452 166.229325 
L 340.640256 166.146637 
L 340.640256 166.122146 
L 340.535158 166.005641 
L 340.43006 166.005641 
L 340.43006 165.897079 
L 340.43006 165.652643 
L 340.324962 165.661462 
L 339.904571 165.645611 
L 339.904571 165.552637 
L 339.799473 165.185686 
L 339.694375 165.185686 
L 339.694375 165.08269 
L 339.589277 164.962049 
L 339.484179 164.962049 
L 339.484179 164.858268 
L 339.379081 164.571004 
L 339.063787 164.509681 
L 339.063787 164.465788 
L 338.958689 164.280913 
L 338.853591 164.280913 
L 338.853591 164.174726 
L 338.748493 164.085914 
L 337.90771 164.066762 
L 337.90771 163.977398 
L 337.802612 163.807102 
L 337.697514 163.807102 
L 337.697514 163.698959 
L 337.592416 163.391239 
L 337.172024 163.344427 
L 337.172024 163.280191 
L 337.066926 163.160938 
L 336.85673 163.087104 
L 336.85673 163.059008 
L 336.751632 162.800377 
L 336.226143 162.760631 
L 336.226143 162.694969 
L 336.121045 162.405046 
L 336.015947 162.405046 
L 336.015947 162.30103 
L 335.910849 162.055043 
L 335.805751 162.055043 
L 335.805751 161.949864 
L 335.700653 161.710842 
L 335.595555 161.710842 
L 335.595555 161.604511 
L 335.490457 161.198716 
L 335.280261 161.168347 
L 335.280261 161.089362 
L 335.175163 160.893059 
L 334.964967 160.901423 
L 334.964967 160.782496 
L 334.859869 159.998078 
L 334.544576 159.944405 
L 334.544576 159.892397 
L 334.544576 159.407075 
L 334.439478 159.415235 
L 334.33438 159.433574 
L 334.33438 159.311298 
L 334.229282 158.681508 
L 334.019086 158.699935 
L 334.019086 158.572919 
L 333.913988 158.109753 
L 333.80889 158.109753 
L 333.80889 158.001674 
L 333.703792 157.456361 
L 333.493596 157.421348 
L 333.493596 157.354049 
L 333.388498 157.189545 
L 333.2834 157.189545 
L 333.2834 157.08926 
L 333.178302 156.879942 
L 332.757911 156.79425 
L 332.757911 156.769249 
L 332.652813 156.237761 
L 332.547715 156.237761 
L 332.547715 156.134498 
L 332.442617 155.975152 
L 332.232421 155.949308 
L 332.232421 155.867494 
L 332.127323 155.729316 
L 328.974385 155.643257 
L 328.869287 154.740221 
L 328.659091 154.631173 
L 328.659091 154.63867 
L 328.553993 154.646172 
L 328.553993 154.211884 
L 328.028503 154.111517 
L 328.028503 154.107084 
L 327.923405 153.625755 
L 327.713209 153.597088 
L 327.713209 153.520294 
L 327.608112 153.12872 
L 327.292818 153.131043 
L 327.292818 153.028748 
L 327.18772 152.926131 
L 327.082622 152.945557 
L 327.082622 152.823191 
L 326.977524 152.572214 
L 326.872426 152.572214 
L 326.872426 152.46821 
L 326.767328 152.152563 
L 326.241838 152.055925 
L 326.241838 152.050461 
L 326.13674 151.553947 
L 325.926544 151.446758 
L 325.926544 151.453685 
L 325.821447 150.807853 
L 325.611251 150.814648 
L 325.611251 150.705184 
L 325.506153 150.608335 
L 325.401055 150.608335 
L 325.401055 150.498196 
L 325.295957 150.504933 
L 325.295957 150.243982 
L 325.190859 150.263753 
L 325.190859 150.145828 
L 325.085761 149.677512 
L 324.980663 149.677512 
L 324.980663 149.577805 
L 324.980663 149.177013 
L 324.875565 149.196885 
L 324.770467 149.216764 
L 324.770467 149.095838 
L 324.665369 148.519825 
L 324.560271 148.519825 
L 324.560271 148.416904 
L 324.455173 148.231355 
L 324.244977 148.237599 
L 324.244977 148.133808 
L 324.139879 148.0297 
L 323.719488 148.034501 
L 323.719488 147.929969 
L 323.61439 147.49035 
L 323.509292 147.49035 
L 323.509292 147.38427 
L 323.404194 147.193326 
L 323.299096 147.193326 
L 323.299096 147.086358 
L 323.193998 146.379621 
L 322.983802 146.32793 
L 322.983802 146.276141 
L 322.878704 145.978279 
L 322.773606 145.978279 
L 322.773606 145.867769 
L 322.668508 145.4789 
L 322.56341 145.4789 
L 322.56341 145.381633 
L 322.458312 144.82462 
L 322.353214 144.82462 
L 322.353214 144.725655 
L 322.248117 144.0844 
L 321.932823 144.064594 
L 321.932823 143.978768 
L 321.932823 143.6892 
L 321.827725 143.70964 
L 321.512431 143.658743 
L 321.512431 143.602578 
L 321.407333 143.238059 
L 320.881843 143.304649 
L 320.881843 143.139258 
L 320.776745 142.84833 
L 320.671647 142.84833 
L 320.671647 142.743745 
L 320.671647 142.665356 
L 320.566549 142.685944 
L 320.461452 142.685944 
L 320.461452 142.580861 
L 320.356354 142.127251 
L 320.251256 142.147889 
L 320.251256 142.020643 
L 320.146158 142.025365 
L 320.146158 141.929683 
L 320.04106 141.929683 
L 320.04106 141.82248 
L 320.04106 141.75842 
L 319.935962 141.763072 
L 319.620668 141.676052 
L 319.620668 141.664607 
L 319.51557 141.588743 
L 318.99008 141.60721 
L 318.99008 141.482577 
L 318.884982 141.292577 
L 318.464591 141.257387 
L 318.464591 141.196742 
L 318.464591 140.951544 
L 318.359493 140.95599 
L 318.044199 140.948486 
L 318.044199 140.854362 
L 317.939101 140.759983 
L 317.834003 140.759983 
L 317.834003 140.66535 
L 317.728905 140.537328 
L 317.623807 140.537328 
L 317.623807 140.442104 
L 317.518709 140.213246 
L 317.413611 140.213246 
L 317.413611 140.117191 
L 317.308513 140.004099 
L 317.203415 140.004099 
L 317.203415 139.907479 
L 317.098317 139.59096 
L 316.677926 139.484381 
L 316.677926 139.488417 
L 316.572828 139.407388 
L 316.46773 139.428434 
L 316.46773 139.309097 
L 316.362632 139.124914 
L 316.257534 139.124914 
L 316.257534 139.025876 
L 316.152436 138.788607 
L 315.94224 138.688689 
L 315.94224 138.692492 
L 315.837142 138.696298 
L 315.837142 138.64431 
L 315.732044 138.64431 
L 315.732044 138.54393 
L 315.732044 138.42212 
L 315.626946 138.44327 
L 315.521848 138.44327 
L 315.521848 138.342329 
L 315.521848 138.28991 
L 315.41675 138.311081 
L 315.101457 138.265968 
L 315.101457 138.217075 
L 314.996359 138.168096 
L 314.891261 138.168096 
L 314.891261 138.066255 
L 314.786163 137.64553 
L 314.575967 137.649024 
L 314.575967 137.545803 
L 314.470869 137.424438 
L 314.365771 137.424438 
L 314.365771 137.320588 
L 314.260673 137.180546 
L 314.050477 137.112002 
L 314.050477 137.079336 
L 313.945379 136.938365 
L 313.41989 136.933398 
L 313.41989 136.827975 
L 313.314792 136.685874 
L 312.579106 136.61389 
L 312.579106 136.580525 
L 312.474008 136.327024 
L 311.84342 136.231934 
L 311.84342 136.216543 
L 311.738322 135.941811 
L 311.212833 135.860664 
L 311.212833 135.844978 
L 311.107735 135.717224 
L 310.582245 135.635175 
L 310.582245 135.619294 
L 310.477147 135.434085 
L 310.161853 135.383124 
L 310.161853 135.329246 
L 310.056755 135.199489 
L 309.636364 135.093727 
L 309.636364 135.096436 
L 309.531266 135.099148 
L 309.531266 134.908463 
L 309.215972 134.913761 
L 309.215972 134.801545 
L 309.110874 134.80416 
L 309.110874 134.708208 
L 308.900678 134.614629 
L 308.900678 134.59792 
L 308.79558 134.542623 
L 308.375188 134.434211 
L 308.375188 134.436705 
L 308.27009 134.186791 
L 308.059895 134.111262 
L 308.059895 134.094137 
L 307.954797 133.940119 
L 307.744601 133.903259 
L 307.744601 133.846717 
L 307.639503 133.514124 
L 307.324209 133.478912 
L 307.324209 133.42165 
L 307.219111 133.065675 
L 307.114013 133.065675 
L 307.114013 132.967747 
L 307.008915 132.889608 
L 306.903817 132.889608 
L 306.903817 132.791203 
L 306.798719 132.430101 
L 306.693621 132.430101 
L 306.693621 132.330572 
L 306.588523 132.230777 
L 306.27323 132.213872 
L 306.27323 132.134086 
L 306.168132 131.808387 
L 305.74774 131.854174 
L 305.74774 131.711791 
L 305.642642 131.651482 
L 305.432446 131.549725 
L 305.432446 131.5512 
L 305.327348 131.34538 
L 305.012054 131.285789 
L 305.012054 131.245517 
L 304.906956 131.246881 
L 304.906956 131.142572 
L 304.591662 131.145225 
L 304.591662 131.041922 
L 304.591662 130.958071 
L 304.486565 130.980312 
L 304.276369 130.91858 
L 304.276369 130.877769 
L 304.171271 130.668144 
L 304.066173 130.668144 
L 304.066173 130.563516 
L 303.961075 130.564626 
L 303.961075 130.458599 
L 303.855977 130.4809 
L 303.855977 130.353394 
L 303.855977 130.225587 
L 303.750879 130.226568 
L 303.435585 130.228532 
L 303.435585 130.122613 
L 303.330487 130.123556 
L 303.330487 130.08072 
L 302.489704 129.979693 
L 302.489704 129.980583 
L 302.489704 129.915936 
L 302.384606 129.916802 
L 301.964214 129.897805 
L 301.964214 129.812146 
L 301.859116 129.399955 
L 301.438724 129.292612 
L 301.438724 129.293236 
L 301.438724 129.161684 
L 301.333626 129.184212 
L 300.913235 129.097976 
L 300.913235 129.076498 
L 300.808137 128.834063 
L 300.703039 128.834063 
L 300.703039 128.723662 
L 300.703039 128.612592 
L 300.597941 128.635187 
L 300.282647 128.546826 
L 300.282647 128.52485 
L 300.282647 128.435545 
L 300.177549 128.458177 
L 299.967353 128.413744 
L 299.967353 128.369239 
L 299.862255 128.122454 
L 299.441863 128.055274 
L 299.441863 128.032826 
L 299.441863 128.010239 
L 299.336765 128.032946 
L 298.811276 128.010796 
L 298.811276 127.942924 
L 298.706178 127.82947 
L 298.390884 127.784027 
L 298.390884 127.738471 
L 298.285786 127.532835 
L 297.5501 127.62404 
L 297.5501 127.646907 
L 297.445003 127.486201 
L 297.339905 127.486201 
L 297.339905 127.394038 
L 297.234807 127.093522 
L 297.024611 127.046878 
L 297.024611 127.000157 
L 297.024611 126.976926 
L 296.919513 126.999849 
L 296.814415 126.999849 
L 296.814415 126.90648 
L 296.709317 126.812876 
L 296.183827 126.741163 
L 296.183827 126.717327 
L 296.078729 126.435006 
L 295.763435 126.363153 
L 295.763435 126.338958 
L 295.763435 126.173372 
L 295.658338 126.196406 
L 295.343044 126.123926 
L 295.343044 126.099487 
L 295.237946 126.027434 
L 294.712456 125.952958 
L 294.712456 125.928311 
L 294.607358 125.855785 
L 293.871673 125.850968 
L 293.871673 125.754054 
L 293.766575 125.536267 
L 293.556379 125.438595 
L 293.556379 125.437609 
L 293.556379 125.073236 
L 293.451281 125.096465 
L 293.241085 125.095328 
L 293.241085 124.996539 
L 293.135987 124.897494 
L 292.610497 124.843501 
L 292.610497 124.793103 
L 292.610497 124.670053 
L 292.505399 124.693365 
L 292.085008 124.689401 
L 292.085008 124.589267 
L 291.97991 124.41449 
L 290.92893 124.42632 
L 290.92893 124.325141 
L 290.823832 124.123568 
L 290.613636 124.046738 
L 290.613636 124.020002 
L 290.508538 123.89257 
L 290.40344 123.916071 
L 290.40344 123.789994 
L 290.298343 123.737723 
L 290.193245 123.737723 
L 290.193245 123.634715 
L 290.088147 123.556819 
L 289.772853 123.527712 
L 289.772853 123.449524 
L 289.667755 123.345653 
L 289.142265 123.235506 
L 289.142265 123.259116 
L 289.037167 123.20586 
L 287.775992 123.13198 
L 287.775992 123.104103 
L 287.670894 123.024476 
L 286.619915 123.005373 
L 286.619915 122.925222 
L 286.514817 122.766623 
L 286.199523 122.657509 
L 286.199523 122.681395 
L 286.094425 122.547999 
L 285.779131 122.464409 
L 285.779131 122.462014 
L 285.674033 122.380553 
L 285.358739 122.349273 
L 285.358739 122.29395 
L 285.358739 122.135055 
L 285.253641 122.159023 
L 285.148543 122.159023 
L 285.148543 122.050251 
L 285.043446 121.94118 
L 284.517956 121.879826 
L 284.517956 121.847713 
L 284.412858 121.576835 
L 284.202662 121.493266 
L 284.202662 121.490387 
L 284.097564 121.325549 
L 283.887368 121.2414 
L 283.887368 121.238395 
L 283.78227 121.181147 
L 283.361878 121.117657 
L 283.361878 121.087368 
L 283.256781 121.029781 
L 283.151683 121.029781 
L 283.151683 120.944779 
L 283.046585 120.804823 
L 282.521095 120.846742 
L 282.521095 120.706201 
L 282.415997 120.565199 
L 282.205801 120.479016 
L 282.205801 120.475612 
L 282.205801 120.39263 
L 282.100703 120.41687 
L 281.995605 120.41687 
L 281.995605 120.33029 
L 281.890507 120.187906 
L 281.470116 120.121495 
L 281.470116 120.09 
L 281.365018 120.030519 
L 280.103842 119.934033 
L 280.103842 119.930325 
L 279.998744 119.842074 
L 279.683451 119.834554 
L 279.683451 119.746 
L 279.578353 119.600532 
L 279.052863 119.613373 
L 279.052863 119.49568 
L 279.052863 119.353116 
L 278.947765 119.377647 
L 278.737569 119.287885 
L 278.737569 119.283825 
L 278.632471 119.107713 
L 278.422275 119.103556 
L 278.422275 119.013096 
L 278.317177 118.922417 
L 277.896786 118.880732 
L 277.896786 118.818582 
L 277.896786 118.760663 
L 277.791688 118.785294 
L 277.056002 118.730119 
L 277.056002 118.696636 
L 276.950904 118.546437 
L 276.63561 118.449729 
L 276.63561 118.445194 
L 276.530512 118.35269 
L 276.110121 118.309508 
L 276.110121 118.246022 
L 276.005023 118.152911 
L 275.794827 118.118674 
L 275.794827 118.054813 
L 275.689729 117.812803 
L 275.059141 117.81807 
L 275.059141 117.723716 
L 274.954043 117.449464 
L 274.323456 117.36372 
L 274.323456 117.358557 
L 274.323456 117.298296 
L 274.218358 117.32325 
L 273.903064 117.252477 
L 273.903064 117.21701 
L 273.903064 117.065616 
L 273.797966 117.090605 
L 273.692868 117.090605 
L 273.692868 116.994208 
L 273.692868 116.933417 
L 273.58777 116.958423 
L 273.377574 116.922585 
L 273.377574 116.856209 
L 273.272476 116.606194 
L 272.011301 116.544254 
L 272.011301 116.507747 
L 272.011301 116.32237 
L 271.906203 116.347532 
L 271.485811 116.361165 
L 271.485811 116.262321 
L 271.380713 116.03866 
L 270.960321 116.051965 
L 270.960321 115.952247 
L 270.855224 115.883606 
L 270.119538 115.815682 
L 270.119538 115.778089 
L 270.01444 115.551062 
L 269.594048 115.500542 
L 269.594048 115.462522 
L 269.48895 115.29731 
L 268.753265 115.233155 
L 268.753265 115.188208 
L 268.648167 114.957319 
L 268.543069 114.957319 
L 268.543069 114.854201 
L 268.543069 114.5639 
L 268.437971 114.589359 
L 267.702285 114.677667 
L 267.702285 114.703215 
L 267.597187 114.66398 
L 266.546208 114.569438 
L 266.546208 114.5625 
L 266.546208 114.52987 
L 266.44111 114.555554 
L 265.91562 114.46223 
L 265.91562 114.455209 
L 265.810522 114.382567 
L 265.600326 114.309771 
L 265.600326 114.302651 
L 265.495229 114.130718 
L 263.813661 114.021419 
L 263.813661 114.04738 
L 263.813661 113.980742 
L 263.708564 114.006713 
L 263.288172 114.017984 
L 263.288172 113.910334 
L 263.183074 113.869414 
L 262.026996 113.82809 
L 262.026996 113.78686 
L 262.026996 113.618063 
L 261.921899 113.644224 
L 261.186213 113.598239 
L 261.186213 113.556586 
L 261.186213 113.454595 
L 261.081115 113.480847 
L 260.765821 113.465295 
L 260.765821 113.389291 
L 260.660723 113.278927 
L 258.138373 113.198762 
L 258.138373 113.190714 
L 258.033275 113.043803 
L 257.717981 113.062275 
L 257.717981 112.949647 
L 257.612883 112.871632 
L 256.561904 112.831922 
L 256.561904 112.788461 
L 256.456806 112.604065 
L 256.036414 112.649175 
L 256.036414 112.499328 
L 255.931316 112.384451 
L 255.826218 112.384451 
L 255.826218 112.304787 
L 255.72112 112.118082 
L 255.300728 112.020099 
L 255.300728 112.011198 
L 255.19563 111.858906 
L 254.039553 111.768321 
L 254.039553 111.759205 
L 254.039553 111.50572 
L 253.934455 111.532728 
L 252.463084 111.447886 
L 252.463084 111.438494 
L 252.463084 111.401886 
L 252.357986 111.429091 
L 251.937594 111.32739 
L 251.937594 111.354643 
L 251.832496 111.161088 
L 251.727398 111.188356 
L 251.727398 111.077647 
L 251.6223 110.994013 
L 251.096811 110.917905 
L 251.096811 110.908103 
L 251.096811 110.833767 
L 250.991713 110.861108 
L 250.571321 110.756948 
L 250.571321 110.784338 
L 250.571321 110.747015 
L 250.466223 110.774418 
L 249.730537 110.71465 
L 249.730537 110.667126 
L 249.625439 110.544312 
L 249.205048 110.476186 
L 249.205048 110.465999 
L 249.205048 110.390459 
L 249.09995 110.418015 
L 248.04897 110.325448 
L 248.04897 110.315101 
L 247.943872 110.228545 
L 245.52662 110.287648 
L 245.52662 110.371717 
L 43.318182 110.371717 
L 43.318182 17.083636 
L 43.318182 17.083636 
" clip-path="url(#pd8a05853b6)" style="fill: none; stroke: #a65628; stroke-opacity: 0.8; stroke-width: 1.75; stroke-linecap: round"/>
   </g>
   <g id="line2d_27">
    <path d="M 347.681818 200.798109 
L 343.734739 200.798109 
L 343.734739 148.867445 
L 343.588551 148.867445 
L 343.588551 148.769871 
L 343.588551 148.752197 
L 343.442363 148.752197 
L 343.442363 148.654267 
L 343.442363 147.341452 
L 343.296175 147.341452 
L 343.296175 147.239664 
L 343.296175 146.945975 
L 343.149987 146.945975 
L 343.149987 146.843057 
L 343.149987 146.341768 
L 343.003799 146.341768 
L 343.003799 146.237136 
L 343.003799 142.780066 
L 342.857611 142.780066 
L 342.857611 142.685515 
L 342.857611 139.899927 
L 342.711423 139.899927 
L 342.711423 139.798091 
L 342.711423 139.496905 
L 342.565234 139.496905 
L 342.565234 139.393984 
L 342.565234 138.652906 
L 342.419046 138.652906 
L 342.419046 138.547752 
L 342.419046 138.5037 
L 342.272858 138.5037 
L 342.272858 138.398106 
L 342.272858 134.709852 
L 342.12667 134.709852 
L 342.12667 134.617906 
L 342.12667 130.018374 
L 341.980482 130.018374 
L 341.980482 129.915461 
L 341.980482 129.523656 
L 341.688106 129.550737 
L 341.688106 129.420318 
L 341.688106 125.187031 
L 341.541918 125.187031 
L 341.541918 125.100526 
L 341.541918 124.586468 
L 341.39573 124.586468 
L 341.39573 124.498703 
L 341.39573 124.239393 
L 43.318182 124.239393 
L 43.318182 17.083636 
L 43.318182 17.083636 
" clip-path="url(#pd8a05853b6)" style="fill: none; stroke: #999999; stroke-opacity: 0.8; stroke-width: 1.75; stroke-linecap: round"/>
   </g>
   <g id="line2d_28">
    <path d="M 28.1 130.518949 
L 362.9 130.518949 
" clip-path="url(#pd8a05853b6)" style="fill: none; stroke-dasharray: 6.475,2.8; stroke-dashoffset: 0; stroke: #ca0b03; stroke-width: 1.75"/>
   </g>
   <g id="patch_3">
    <path d="M 28.1 224.64 
L 28.1 7.2 
" style="fill: none; stroke: #cccccc; stroke-width: 1.25; stroke-linejoin: miter; stroke-linecap: square"/>
   </g>
   <g id="patch_4">
    <path d="M 362.9 224.64 
L 362.9 7.2 
" style="fill: none; stroke: #cccccc; stroke-width: 1.25; stroke-linejoin: miter; stroke-linecap: square"/>
   </g>
   <g id="patch_5">
    <path d="M 28.1 224.64 
L 362.9 224.64 
" style="fill: none; stroke: #cccccc; stroke-width: 1.25; stroke-linejoin: miter; stroke-linecap: square"/>
   </g>
   <g id="patch_6">
    <path d="M 28.1 7.2 
L 362.9 7.2 
" style="fill: none; stroke: #cccccc; stroke-width: 1.25; stroke-linejoin: miter; stroke-linecap: square"/>
   </g>
  </g>
 </g>
 <defs>
  <clipPath id="pd8a05853b6">
   <rect x="28.1" y="7.2" width="334.8" height="217.44"/>
  </clipPath>
 </defs>
</svg>
