<?xml version="1.0" encoding="utf-8" standalone="no"?>
<!DOCTYPE svg PUBLIC "-//W3C//DTD SVG 1.1//EN"
  "http://www.w3.org/Graphics/SVG/1.1/DTD/svg11.dtd">
<svg xmlns:xlink="http://www.w3.org/1999/xlink" width="370.1pt" height="247.985312pt" viewBox="0 0 370.1 247.985312" xmlns="http://www.w3.org/2000/svg" version="1.1">
 <metadata>
  <rdf:RDF xmlns:dc="http://purl.org/dc/elements/1.1/" xmlns:cc="http://creativecommons.org/ns#" xmlns:rdf="http://www.w3.org/1999/02/22-rdf-syntax-ns#">
   <cc:Work>
    <dc:type rdf:resource="http://purl.org/dc/dcmitype/StillImage"/>
    <dc:date>2023-05-02T04:08:53.569380</dc:date>
    <dc:format>image/svg+xml</dc:format>
    <dc:creator>
     <cc:Agent>
      <dc:title>Matplotlib v3.5.1, https://matplotlib.org/</dc:title>
     </cc:Agent>
    </dc:creator>
   </cc:Work>
  </rdf:RDF>
 </metadata>
 <defs>
  <style type="text/css">*{stroke-linejoin: round; stroke-linecap: butt}</style>
 </defs>
 <g id="figure_1">
  <g id="patch_1">
   <path d="M 0 247.985312 
L 370.1 247.985312 
L 370.1 0 
L 0 0 
L 0 247.985312 
z
" style="fill: none"/>
  </g>
  <g id="axes_1">
   <g id="patch_2">
    <path d="M 28.1 224.64 
L 362.9 224.64 
L 362.9 7.2 
L 28.1 7.2 
z
" style="fill: #ffffff"/>
   </g>
   <g id="matplotlib.axis_1">
    <g id="xtick_1">
     <g id="line2d_1">
      <path d="M 43.318182 224.64 
L 43.318182 7.2 
" clip-path="url(#p538cca5324)" style="fill: none; stroke: #cccccc; stroke-linecap: round"/>
     </g>
     <g id="line2d_2"/>
     <g id="text_1">
      <!-- 0.0 -->
      <g style="fill: #262626" transform="translate(36.368182 238.797812)scale(0.1 -0.1)">
       <defs>
        <path id="ArialMT-30" d="M 266 2259 
Q 266 3072 433 3567 
Q 600 4063 929 4331 
Q 1259 4600 1759 4600 
Q 2128 4600 2406 4451 
Q 2684 4303 2865 4023 
Q 3047 3744 3150 3342 
Q 3253 2941 3253 2259 
Q 3253 1453 3087 958 
Q 2922 463 2592 192 
Q 2263 -78 1759 -78 
Q 1097 -78 719 397 
Q 266 969 266 2259 
z
M 844 2259 
Q 844 1131 1108 757 
Q 1372 384 1759 384 
Q 2147 384 2411 759 
Q 2675 1134 2675 2259 
Q 2675 3391 2411 3762 
Q 2147 4134 1753 4134 
Q 1366 4134 1134 3806 
Q 844 3388 844 2259 
z
" transform="scale(0.015625)"/>
        <path id="ArialMT-2e" d="M 581 0 
L 581 641 
L 1222 641 
L 1222 0 
L 581 0 
z
" transform="scale(0.015625)"/>
       </defs>
       <use xlink:href="#ArialMT-30"/>
       <use xlink:href="#ArialMT-2e" x="55.615234"/>
       <use xlink:href="#ArialMT-30" x="83.398438"/>
      </g>
     </g>
    </g>
    <g id="xtick_2">
     <g id="line2d_3">
      <path d="M 104.190909 224.64 
L 104.190909 7.2 
" clip-path="url(#p538cca5324)" style="fill: none; stroke: #cccccc; stroke-linecap: round"/>
     </g>
     <g id="line2d_4"/>
     <g id="text_2">
      <!-- 0.2 -->
      <g style="fill: #262626" transform="translate(97.240909 238.797812)scale(0.1 -0.1)">
       <defs>
        <path id="ArialMT-32" d="M 3222 541 
L 3222 0 
L 194 0 
Q 188 203 259 391 
Q 375 700 629 1000 
Q 884 1300 1366 1694 
Q 2113 2306 2375 2664 
Q 2638 3022 2638 3341 
Q 2638 3675 2398 3904 
Q 2159 4134 1775 4134 
Q 1369 4134 1125 3890 
Q 881 3647 878 3216 
L 300 3275 
Q 359 3922 746 4261 
Q 1134 4600 1788 4600 
Q 2447 4600 2831 4234 
Q 3216 3869 3216 3328 
Q 3216 3053 3103 2787 
Q 2991 2522 2730 2228 
Q 2469 1934 1863 1422 
Q 1356 997 1212 845 
Q 1069 694 975 541 
L 3222 541 
z
" transform="scale(0.015625)"/>
       </defs>
       <use xlink:href="#ArialMT-30"/>
       <use xlink:href="#ArialMT-2e" x="55.615234"/>
       <use xlink:href="#ArialMT-32" x="83.398438"/>
      </g>
     </g>
    </g>
    <g id="xtick_3">
     <g id="line2d_5">
      <path d="M 165.063636 224.64 
L 165.063636 7.2 
" clip-path="url(#p538cca5324)" style="fill: none; stroke: #cccccc; stroke-linecap: round"/>
     </g>
     <g id="line2d_6"/>
     <g id="text_3">
      <!-- 0.4 -->
      <g style="fill: #262626" transform="translate(158.113636 238.797812)scale(0.1 -0.1)">
       <defs>
        <path id="ArialMT-34" d="M 2069 0 
L 2069 1097 
L 81 1097 
L 81 1613 
L 2172 4581 
L 2631 4581 
L 2631 1613 
L 3250 1613 
L 3250 1097 
L 2631 1097 
L 2631 0 
L 2069 0 
z
M 2069 1613 
L 2069 3678 
L 634 1613 
L 2069 1613 
z
" transform="scale(0.015625)"/>
       </defs>
       <use xlink:href="#ArialMT-30"/>
       <use xlink:href="#ArialMT-2e" x="55.615234"/>
       <use xlink:href="#ArialMT-34" x="83.398438"/>
      </g>
     </g>
    </g>
    <g id="xtick_4">
     <g id="line2d_7">
      <path d="M 225.936364 224.64 
L 225.936364 7.2 
" clip-path="url(#p538cca5324)" style="fill: none; stroke: #cccccc; stroke-linecap: round"/>
     </g>
     <g id="line2d_8"/>
     <g id="text_4">
      <!-- 0.6 -->
      <g style="fill: #262626" transform="translate(218.986364 238.797812)scale(0.1 -0.1)">
       <defs>
        <path id="ArialMT-36" d="M 3184 3459 
L 2625 3416 
Q 2550 3747 2413 3897 
Q 2184 4138 1850 4138 
Q 1581 4138 1378 3988 
Q 1113 3794 959 3422 
Q 806 3050 800 2363 
Q 1003 2672 1297 2822 
Q 1591 2972 1913 2972 
Q 2475 2972 2870 2558 
Q 3266 2144 3266 1488 
Q 3266 1056 3080 686 
Q 2894 316 2569 119 
Q 2244 -78 1831 -78 
Q 1128 -78 684 439 
Q 241 956 241 2144 
Q 241 3472 731 4075 
Q 1159 4600 1884 4600 
Q 2425 4600 2770 4297 
Q 3116 3994 3184 3459 
z
M 888 1484 
Q 888 1194 1011 928 
Q 1134 663 1356 523 
Q 1578 384 1822 384 
Q 2178 384 2434 671 
Q 2691 959 2691 1453 
Q 2691 1928 2437 2201 
Q 2184 2475 1800 2475 
Q 1419 2475 1153 2201 
Q 888 1928 888 1484 
z
" transform="scale(0.015625)"/>
       </defs>
       <use xlink:href="#ArialMT-30"/>
       <use xlink:href="#ArialMT-2e" x="55.615234"/>
       <use xlink:href="#ArialMT-36" x="83.398438"/>
      </g>
     </g>
    </g>
    <g id="xtick_5">
     <g id="line2d_9">
      <path d="M 286.809091 224.64 
L 286.809091 7.2 
" clip-path="url(#p538cca5324)" style="fill: none; stroke: #cccccc; stroke-linecap: round"/>
     </g>
     <g id="line2d_10"/>
     <g id="text_5">
      <!-- 0.8 -->
      <g style="fill: #262626" transform="translate(279.859091 238.797812)scale(0.1 -0.1)">
       <defs>
        <path id="ArialMT-38" d="M 1131 2484 
Q 781 2613 612 2850 
Q 444 3088 444 3419 
Q 444 3919 803 4259 
Q 1163 4600 1759 4600 
Q 2359 4600 2725 4251 
Q 3091 3903 3091 3403 
Q 3091 3084 2923 2848 
Q 2756 2613 2416 2484 
Q 2838 2347 3058 2040 
Q 3278 1734 3278 1309 
Q 3278 722 2862 322 
Q 2447 -78 1769 -78 
Q 1091 -78 675 323 
Q 259 725 259 1325 
Q 259 1772 486 2073 
Q 713 2375 1131 2484 
z
M 1019 3438 
Q 1019 3113 1228 2906 
Q 1438 2700 1772 2700 
Q 2097 2700 2305 2904 
Q 2513 3109 2513 3406 
Q 2513 3716 2298 3927 
Q 2084 4138 1766 4138 
Q 1444 4138 1231 3931 
Q 1019 3725 1019 3438 
z
M 838 1322 
Q 838 1081 952 856 
Q 1066 631 1291 507 
Q 1516 384 1775 384 
Q 2178 384 2440 643 
Q 2703 903 2703 1303 
Q 2703 1709 2433 1975 
Q 2163 2241 1756 2241 
Q 1359 2241 1098 1978 
Q 838 1716 838 1322 
z
" transform="scale(0.015625)"/>
       </defs>
       <use xlink:href="#ArialMT-30"/>
       <use xlink:href="#ArialMT-2e" x="55.615234"/>
       <use xlink:href="#ArialMT-38" x="83.398438"/>
      </g>
     </g>
    </g>
    <g id="xtick_6">
     <g id="line2d_11">
      <path d="M 347.681818 224.64 
L 347.681818 7.2 
" clip-path="url(#p538cca5324)" style="fill: none; stroke: #cccccc; stroke-linecap: round"/>
     </g>
     <g id="line2d_12"/>
     <g id="text_6">
      <!-- 1.0 -->
      <g style="fill: #262626" transform="translate(340.731818 238.797812)scale(0.1 -0.1)">
       <defs>
        <path id="ArialMT-31" d="M 2384 0 
L 1822 0 
L 1822 3584 
Q 1619 3391 1289 3197 
Q 959 3003 697 2906 
L 697 3450 
Q 1169 3672 1522 3987 
Q 1875 4303 2022 4600 
L 2384 4600 
L 2384 0 
z
" transform="scale(0.015625)"/>
       </defs>
       <use xlink:href="#ArialMT-31"/>
       <use xlink:href="#ArialMT-2e" x="55.615234"/>
       <use xlink:href="#ArialMT-30" x="83.398438"/>
      </g>
     </g>
    </g>
   </g>
   <g id="matplotlib.axis_2">
    <g id="ytick_1">
     <g id="line2d_13">
      <path d="M 28.1 194.131371 
L 362.9 194.131371 
" clip-path="url(#p538cca5324)" style="fill: none; stroke: #cccccc; stroke-linecap: round"/>
     </g>
     <g id="line2d_14"/>
     <g id="text_7">
      <!-- 0.2 -->
      <g style="fill: #262626" transform="translate(7.2 197.710278)scale(0.1 -0.1)">
       <use xlink:href="#ArialMT-30"/>
       <use xlink:href="#ArialMT-2e" x="55.615234"/>
       <use xlink:href="#ArialMT-32" x="83.398438"/>
      </g>
     </g>
    </g>
    <g id="ytick_2">
     <g id="line2d_15">
      <path d="M 28.1 149.869438 
L 362.9 149.869438 
" clip-path="url(#p538cca5324)" style="fill: none; stroke: #cccccc; stroke-linecap: round"/>
     </g>
     <g id="line2d_16"/>
     <g id="text_8">
      <!-- 0.4 -->
      <g style="fill: #262626" transform="translate(7.2 153.448344)scale(0.1 -0.1)">
       <use xlink:href="#ArialMT-30"/>
       <use xlink:href="#ArialMT-2e" x="55.615234"/>
       <use xlink:href="#ArialMT-34" x="83.398438"/>
      </g>
     </g>
    </g>
    <g id="ytick_3">
     <g id="line2d_17">
      <path d="M 28.1 105.607504 
L 362.9 105.607504 
" clip-path="url(#p538cca5324)" style="fill: none; stroke: #cccccc; stroke-linecap: round"/>
     </g>
     <g id="line2d_18"/>
     <g id="text_9">
      <!-- 0.6 -->
      <g style="fill: #262626" transform="translate(7.2 109.18641)scale(0.1 -0.1)">
       <use xlink:href="#ArialMT-30"/>
       <use xlink:href="#ArialMT-2e" x="55.615234"/>
       <use xlink:href="#ArialMT-36" x="83.398438"/>
      </g>
     </g>
    </g>
    <g id="ytick_4">
     <g id="line2d_19">
      <path d="M 28.1 61.34557 
L 362.9 61.34557 
" clip-path="url(#p538cca5324)" style="fill: none; stroke: #cccccc; stroke-linecap: round"/>
     </g>
     <g id="line2d_20"/>
     <g id="text_10">
      <!-- 0.8 -->
      <g style="fill: #262626" transform="translate(7.2 64.924476)scale(0.1 -0.1)">
       <use xlink:href="#ArialMT-30"/>
       <use xlink:href="#ArialMT-2e" x="55.615234"/>
       <use xlink:href="#ArialMT-38" x="83.398438"/>
      </g>
     </g>
    </g>
    <g id="ytick_5">
     <g id="line2d_21">
      <path d="M 28.1 17.083636 
L 362.9 17.083636 
" clip-path="url(#p538cca5324)" style="fill: none; stroke: #cccccc; stroke-linecap: round"/>
     </g>
     <g id="line2d_22"/>
     <g id="text_11">
      <!-- 1.0 -->
      <g style="fill: #262626" transform="translate(7.2 20.662543)scale(0.1 -0.1)">
       <use xlink:href="#ArialMT-31"/>
       <use xlink:href="#ArialMT-2e" x="55.615234"/>
       <use xlink:href="#ArialMT-30" x="83.398438"/>
      </g>
     </g>
    </g>
   </g>
   <g id="line2d_23">
    <path d="M 347.681818 205.276307 
L 345.524388 205.276307 
L 345.524388 186.519846 
L 345.358432 186.519846 
L 345.358432 186.414521 
L 345.358432 186.354081 
L 345.192475 186.354081 
L 345.192475 186.247931 
L 345.192475 185.846342 
L 345.026519 185.846342 
L 345.026519 185.737766 
L 345.026519 184.227853 
L 344.860563 184.227853 
L 344.860563 184.118819 
L 344.860563 180.182583 
L 344.694607 180.182583 
L 344.694607 180.079556 
L 344.694607 179.386058 
L 344.528651 179.386058 
L 344.528651 179.279685 
L 344.528651 179.148903 
L 344.362695 179.148903 
L 344.362695 179.041481 
L 344.362695 177.89666 
L 344.030782 177.893542 
L 344.030782 177.789841 
L 344.030782 177.066937 
L 343.532914 177.031403 
L 343.532914 176.961789 
L 343.532914 176.572862 
L 343.366957 176.572862 
L 343.366957 176.463591 
L 343.366957 175.539412 
L 343.201001 175.539412 
L 343.201001 175.435722 
L 343.201001 175.405973 
L 343.035045 175.405973 
L 343.035045 175.301709 
L 343.035045 174.627309 
L 342.869089 174.627309 
L 342.869089 174.519952 
L 342.869089 174.356121 
L 342.37122 174.303788 
L 342.37122 174.246607 
L 342.37122 173.314972 
L 342.205264 173.314972 
L 342.205264 173.212812 
L 342.205264 173.116739 
L 342.039308 173.116739 
L 342.039308 173.013787 
L 342.039308 171.889565 
L 341.707396 171.859867 
L 341.707396 171.785541 
L 341.707396 171.516871 
L 341.541439 171.516871 
L 341.541439 171.407711 
L 341.541439 170.248433 
L 341.209527 170.15774 
L 341.209527 170.14887 
L 341.209527 170.137144 
L 341.043571 170.137144 
L 341.043571 170.034224 
L 341.043571 169.90451 
L 340.877615 169.90451 
L 340.877615 169.800697 
L 340.877615 168.495783 
L 340.711659 168.495783 
L 340.711659 168.386787 
L 340.711659 167.179995 
L 340.545702 167.179995 
L 340.545702 167.078873 
L 340.545702 164.278568 
L 340.379746 164.278568 
L 340.379746 164.181183 
L 340.379746 163.69138 
L 340.047834 163.676755 
L 340.047834 163.591474 
L 340.047834 163.207729 
L 339.881878 163.207729 
L 339.881878 163.10673 
L 339.881878 163.049358 
L 339.715921 163.049358 
L 339.715921 162.947787 
L 339.715921 162.861284 
L 339.384009 162.80246 
L 339.384009 162.75797 
L 339.384009 162.115011 
L 339.218053 162.115011 
L 339.218053 162.010197 
L 339.218053 161.23352 
L 338.886141 161.231531 
L 338.886141 161.123648 
L 338.886141 159.908136 
L 338.720184 159.908136 
L 338.720184 159.811376 
L 338.720184 158.923624 
L 338.388272 158.936211 
L 338.388272 158.820284 
L 338.388272 158.723617 
L 338.05636 158.720031 
L 338.05636 158.619412 
L 338.05636 158.310589 
L 337.890403 158.310589 
L 337.890403 158.208643 
L 337.890403 157.764269 
L 337.558491 157.743479 
L 337.558491 157.656259 
L 337.558491 157.606391 
L 337.392535 157.606391 
L 337.392535 157.502065 
L 337.392535 157.301342 
L 337.226579 157.301342 
L 337.226579 157.195994 
L 337.226579 156.942885 
L 337.060623 156.942885 
L 337.060623 156.836338 
L 337.060623 156.819354 
L 336.894666 156.819354 
L 336.894666 156.712353 
L 336.894666 156.232381 
L 336.72871 156.232381 
L 336.72871 156.123437 
L 336.72871 155.897945 
L 336.562754 155.897945 
L 336.562754 155.787859 
L 336.562754 155.595468 
L 336.230842 155.607269 
L 336.230842 155.496114 
L 336.230842 155.231379 
L 336.064885 155.231379 
L 336.064885 155.136693 
L 336.064885 154.797961 
L 335.898929 154.797961 
L 335.898929 154.701983 
L 335.898929 154.684027 
L 335.732973 154.684027 
L 335.732973 154.587667 
L 335.732973 154.497514 
L 335.567017 154.497514 
L 335.567017 154.400562 
L 335.567017 153.596454 
L 335.401061 153.596454 
L 335.401061 153.496832 
L 335.401061 153.348542 
L 335.235105 153.348542 
L 335.235105 153.248137 
L 335.235105 152.268591 
L 334.903192 152.164937 
L 334.903192 152.175769 
L 334.903192 151.384782 
L 334.737236 151.384782 
L 334.737236 151.278358 
L 334.737236 150.807148 
L 334.405324 150.718707 
L 334.405324 150.709285 
L 334.405324 150.689474 
L 334.073411 150.580754 
L 334.073411 150.5911 
L 334.073411 150.571212 
L 333.741499 150.601454 
L 333.741499 150.472324 
L 333.741499 149.9503 
L 333.409587 149.859314 
L 333.409587 149.849176 
L 333.409587 149.236979 
L 332.911718 149.133272 
L 332.911718 149.143161 
L 332.911718 149.08124 
L 332.579806 149.049772 
L 332.579806 148.976812 
L 332.579806 148.539415 
L 332.41385 148.539415 
L 332.41385 148.444298 
L 332.41385 146.994196 
L 332.247893 146.994196 
L 332.247893 146.894817 
L 332.247893 146.392318 
L 332.081937 146.392318 
L 332.081937 146.291219 
L 332.081937 145.692577 
L 331.750025 145.634203 
L 331.750025 145.598081 
L 331.750025 145.530871 
L 331.584069 145.530871 
L 331.584069 145.427188 
L 331.584069 145.4047 
L 331.418112 145.4047 
L 331.418112 145.300602 
L 331.418112 145.255466 
L 331.252156 145.255466 
L 331.252156 145.150888 
L 331.252156 144.282453 
L 331.0862 144.282453 
L 331.0862 144.175047 
L 331.0862 143.896638 
L 330.422375 143.827263 
L 330.422375 143.78848 
L 330.422375 143.530637 
L 330.090463 143.420752 
L 330.090463 143.42854 
L 330.090463 142.016514 
L 329.592594 141.909221 
L 329.592594 141.916384 
L 329.592594 141.524699 
L 329.426638 141.524699 
L 329.426638 141.433237 
L 329.426638 141.012532 
L 329.094726 141.044171 
L 329.094726 140.901555 
L 329.094726 140.551136 
L 328.92877 140.551136 
L 328.92877 140.45709 
L 328.92877 139.976266 
L 328.762814 139.976266 
L 328.762814 139.88072 
L 328.762814 139.006195 
L 328.596857 139.006195 
L 328.596857 138.908127 
L 328.596857 138.699563 
L 328.430901 138.699563 
L 328.430901 138.600651 
L 328.430901 138.574452 
L 328.264945 138.574452 
L 328.264945 138.475161 
L 328.264945 138.158881 
L 328.098989 138.158881 
L 328.098989 138.058459 
L 328.098989 137.579026 
L 327.933033 137.579026 
L 327.933033 137.477038 
L 327.933033 137.396477 
L 327.767076 137.396477 
L 327.767076 137.293952 
L 327.767076 137.023778 
L 327.60112 137.023778 
L 327.60112 136.920216 
L 327.60112 136.593235 
L 327.435164 136.593235 
L 327.435164 136.488477 
L 327.435164 136.378724 
L 327.103252 136.30087 
L 327.103252 136.277943 
L 327.103252 136.11235 
L 326.771339 136.061535 
L 326.771339 136.010609 
L 326.771339 135.704657 
L 326.107515 135.633778 
L 326.107515 135.610074 
L 326.107515 135.469813 
L 325.941558 135.469813 
L 325.941558 135.361494 
L 325.941558 135.07906 
L 325.775602 135.07906 
L 325.775602 134.969621 
L 325.775602 133.471563 
L 325.609646 133.471563 
L 325.609646 133.38696 
L 325.609646 133.210923 
L 325.44369 133.210923 
L 325.44369 133.125696 
L 325.44369 132.592845 
L 325.277734 132.592845 
L 325.277734 132.506195 
L 325.277734 132.326979 
L 325.111778 132.326979 
L 325.111778 132.239684 
L 325.111778 132.119601 
L 324.613909 132.094467 
L 324.613909 131.734252 
L 43.318182 131.734252 
L 43.318182 17.083636 
L 43.318182 17.083636 
" clip-path="url(#p538cca5324)" style="fill: none; stroke: #e41a1c; stroke-opacity: 0.8; stroke-width: 1.75; stroke-linecap: round"/>
   </g>
   <g id="line2d_24">
    <path d="M 347.681818 214.756364 
L 341.403882 214.756364 
L 341.403882 192.215083 
L 341.171366 192.215083 
L 341.171366 192.107969 
L 341.171366 191.903032 
L 340.706334 191.870662 
L 340.706334 191.792208 
L 340.706334 191.537641 
L 340.473818 191.537641 
L 340.473818 191.426557 
L 340.473818 189.417763 
L 340.008785 189.3797 
L 340.008785 189.307413 
L 340.008785 189.179095 
L 339.543753 189.131813 
L 339.543753 189.07574 
L 339.543753 189.015281 
L 339.078721 189.028103 
L 339.078721 188.910813 
L 339.078721 188.744999 
L 338.613688 188.678814 
L 338.613688 188.638786 
L 338.613688 188.506319 
L 338.381172 188.506319 
L 338.381172 188.403635 
L 338.381172 188.305563 
L 337.91614 188.309304 
L 337.91614 188.196501 
L 337.91614 187.318742 
L 337.683624 187.318742 
L 337.683624 187.209885 
L 337.683624 186.402576 
L 337.451108 186.402576 
L 337.451108 186.29864 
L 337.451108 186.191789 
L 336.753559 186.118364 
L 336.753559 186.081486 
L 336.753559 185.865037 
L 336.521043 185.865037 
L 336.521043 185.758169 
L 336.521043 184.393403 
L 336.288527 184.393403 
L 336.288527 184.289661 
L 336.288527 183.87714 
L 336.056011 183.909756 
L 336.056011 183.770903 
L 336.056011 183.458591 
L 335.823495 183.458591 
L 335.823495 183.350292 
L 335.823495 183.28492 
L 335.358462 183.252323 
L 335.358462 183.175796 
L 335.358462 183.021802 
L 334.660914 182.944289 
L 334.660914 182.910909 
L 334.660914 182.877587 
L 334.195882 182.877587 
L 334.195882 182.776914 
L 334.195882 182.732188 
L 333.963366 182.732188 
L 333.963366 182.630942 
L 333.963366 182.234741 
L 333.730849 182.234741 
L 333.730849 182.131189 
L 333.730849 180.444505 
L 333.498333 180.444505 
L 333.498333 180.344868 
L 333.498333 180.234858 
L 333.265817 180.234858 
L 333.265817 180.134247 
L 333.265817 179.625597 
L 332.800785 179.610136 
L 332.800785 179.519259 
L 332.800785 179.506676 
L 332.335752 179.453201 
L 332.335752 179.399542 
L 332.335752 179.310849 
L 332.103236 179.310849 
L 332.103236 179.205836 
L 332.103236 178.808088 
L 331.87072 178.808088 
L 331.87072 178.700782 
L 331.87072 178.374665 
L 331.638204 178.374665 
L 331.638204 178.26535 
L 331.638204 177.518419 
L 331.173172 177.459376 
L 331.173172 177.413699 
L 331.173172 177.345763 
L 330.708139 177.367879 
L 330.708139 177.239996 
L 330.708139 177.157856 
L 330.243107 177.179993 
L 330.243107 177.050958 
L 330.243107 176.368292 
L 330.010591 176.368292 
L 330.010591 176.263337 
L 330.010591 176.220869 
L 329.545559 176.115207 
L 329.545559 176.123088 
L 329.545559 176.066103 
L 329.313043 176.066103 
L 329.313043 175.959614 
L 329.313043 175.844846 
L 328.615494 175.773887 
L 328.615494 175.738261 
L 328.615494 174.664846 
L 328.382978 174.664846 
L 328.382978 174.566993 
L 328.382978 174.280438 
L 328.150462 174.317592 
L 328.150462 174.181002 
L 328.150462 173.208322 
L 327.917946 173.208322 
L 327.917946 173.104553 
L 327.917946 172.946812 
L 327.68543 172.946812 
L 327.68543 172.841907 
L 327.68543 172.570901 
L 327.452913 172.570901 
L 327.452913 172.464389 
L 327.452913 172.206224 
L 327.220397 172.206224 
L 327.220397 172.098137 
L 327.220397 171.836875 
L 326.987881 171.836875 
L 326.987881 171.727183 
L 326.987881 170.022124 
L 326.755365 170.022124 
L 326.755365 169.922116 
L 326.755365 169.887341 
L 326.290333 169.839089 
L 326.290333 169.79069 
L 326.290333 169.58036 
L 326.057817 169.58036 
L 326.057817 169.478438 
L 326.057817 169.248249 
L 325.8253 169.248249 
L 325.8253 169.14498 
L 325.8253 169.091437 
L 325.592784 169.091437 
L 325.592784 168.987483 
L 325.592784 168.226176 
L 325.360268 168.226176 
L 325.360268 168.118795 
L 325.360268 167.823214 
L 325.127752 167.823214 
L 325.127752 167.71417 
L 325.127752 167.676902 
L 324.895236 167.676902 
L 324.895236 167.567193 
L 324.895236 167.454711 
L 324.197687 167.383913 
L 324.197687 167.348373 
L 324.197687 167.253848 
L 323.965171 167.253848 
L 323.965171 167.1611 
L 323.965171 166.139919 
L 323.500139 166.180248 
L 323.500139 166.044377 
L 323.500139 165.867292 
L 323.267623 165.907766 
L 323.267623 165.769473 
L 323.267623 165.27123 
L 322.80259 165.191344 
L 322.80259 165.171664 
L 322.80259 164.827425 
L 322.337558 164.746059 
L 322.337558 164.725732 
L 322.337558 164.561889 
L 322.105042 164.561889 
L 322.105042 164.45898 
L 322.105042 163.751873 
L 321.872526 163.793141 
L 321.872526 163.645918 
L 321.872526 163.285945 
L 321.64001 163.285945 
L 321.64001 163.178179 
L 321.64001 162.618799 
L 321.407494 162.618799 
L 321.407494 162.508453 
L 321.407494 162.464916 
L 320.942461 162.3976 
L 320.942461 162.373816 
L 320.942461 162.264309 
L 320.477429 162.174358 
L 320.477429 162.172235 
L 320.477429 162.106109 
L 320.244913 162.106109 
L 320.244913 162.015497 
L 320.244913 161.838029 
L 319.314848 161.853018 
L 319.314848 161.73892 
L 319.314848 161.492082 
L 319.082332 161.492082 
L 319.082332 161.399094 
L 319.082332 160.898984 
L 318.849816 160.898984 
L 318.849816 160.803969 
L 318.849816 160.689022 
L 318.6173 160.689022 
L 318.6173 160.593232 
L 318.6173 160.105093 
L 317.454719 160.135766 
L 317.454719 160.014183 
L 317.454719 159.943486 
L 316.757171 159.982264 
L 316.757171 159.836055 
L 316.757171 159.764855 
L 316.524654 159.764855 
L 316.524654 159.665221 
L 316.524654 159.521949 
L 316.059622 159.541241 
L 316.059622 159.416657 
L 316.059622 159.078841 
L 315.827106 159.078841 
L 315.827106 158.976608 
L 315.827106 156.828861 
L 315.362074 156.87282 
L 315.362074 156.736947 
L 315.362074 156.244729 
L 314.199493 156.265019 
L 314.199493 156.152232 
L 314.199493 155.94183 
L 313.966977 155.98625 
L 313.966977 155.85423 
L 313.966977 155.562291 
L 313.734461 155.562291 
L 313.734461 155.473478 
L 313.734461 155.420015 
L 313.501945 155.420015 
L 313.501945 155.330697 
L 313.501945 155.061538 
L 43.318182 155.052233 
L 43.318182 17.083636 
L 43.318182 17.083636 
" clip-path="url(#p538cca5324)" style="fill: none; stroke: #4daf4a; stroke-opacity: 0.8; stroke-width: 1.75; stroke-linecap: round"/>
   </g>
   <g id="line2d_25">
    <path d="M 347.681818 163.726572 
L 346.283291 163.726572 
L 346.209685 149.536901 
L 346.136078 149.536901 
L 346.136078 149.428289 
L 346.062471 149.06586 
L 345.915258 148.9735 
L 345.915258 148.960095 
L 345.841651 148.513588 
L 345.768044 148.513588 
L 345.768044 148.410975 
L 345.694438 148.361604 
L 345.547224 148.294296 
L 345.547224 148.253686 
L 345.473618 147.536601 
L 345.179191 147.457488 
L 345.179191 147.4341 
L 345.105584 147.200376 
L 345.031978 147.200376 
L 345.031978 147.094157 
L 344.958371 146.784515 
L 344.811158 146.714264 
L 344.811158 146.681002 
L 344.811158 146.662441 
L 344.737551 146.675555 
L 344.516731 146.646068 
L 344.516731 146.566174 
L 344.443124 146.101985 
L 344.369517 146.101985 
L 344.369517 145.992678 
L 344.295911 145.892514 
L 344.148697 145.82051 
L 344.148697 145.7863 
L 344.075091 145.571369 
L 343.927877 145.527358 
L 343.927877 145.464178 
L 343.854271 145.170631 
L 343.633451 145.062236 
L 343.633451 145.065817 
L 343.633451 145.04652 
L 343.559844 145.059751 
L 343.339024 144.970286 
L 343.339024 144.954502 
L 343.265417 144.773779 
L 343.19181 144.773779 
L 343.19181 144.670271 
L 343.118204 144.566483 
L 342.97099 144.521121 
L 342.97099 144.456108 
L 342.97099 144.141641 
L 342.897384 144.154934 
L 342.75017 144.04977 
L 342.75017 144.053189 
L 342.676564 143.878297 
L 342.52935 143.832028 
L 342.52935 143.775741 
L 342.455744 143.619597 
L 342.30853 143.622944 
L 342.30853 143.516274 
L 342.30853 143.38592 
L 342.234924 143.39927 
L 342.08771 143.291987 
L 342.08771 143.29528 
L 342.014104 142.934692 
L 341.719677 142.832587 
L 341.719677 142.825623 
L 341.64607 142.471148 
L 341.572463 142.471148 
L 341.572463 142.361309 
L 341.498857 142.240853 
L 341.278037 142.143805 
L 341.278037 142.136559 
L 341.278037 142.11587 
L 341.20443 142.11896 
L 341.057217 142.059909 
L 341.057217 142.011134 
L 340.98361 141.983061 
L 340.76279 141.937226 
L 340.76279 141.877832 
L 340.689183 141.766151 
L 340.615577 141.766151 
L 340.615577 141.664623 
L 340.54197 141.615263 
L 340.32115 141.547829 
L 340.32115 141.508797 
L 340.247543 141.301059 
L 340.026723 141.243541 
L 340.026723 141.193559 
L 339.953116 140.952251 
L 339.87951 140.952251 
L 339.87951 140.848545 
L 339.805903 140.765954 
L 339.732296 140.765954 
L 339.732296 140.661752 
L 339.65869 140.557275 
L 339.585083 140.557275 
L 339.585083 140.452523 
L 339.511476 140.206965 
L 339.43787 140.206965 
L 339.43787 140.101321 
L 339.364263 140.07148 
L 339.21705 140.063341 
L 339.21705 139.968162 
L 339.21705 139.946379 
L 339.143443 139.949082 
L 338.775409 139.872591 
L 338.775409 139.842494 
L 338.701803 139.669906 
L 338.333769 139.680526 
L 338.333769 139.562202 
L 338.260163 139.564837 
L 338.260163 139.410401 
L 338.112949 139.357723 
L 338.112949 139.304963 
L 338.039343 139.25212 
L 337.744916 139.193217 
L 337.744916 139.151301 
L 337.671309 138.897255 
L 337.450489 138.857495 
L 337.450489 138.792738 
L 337.376882 138.604126 
L 337.303276 138.604126 
L 337.303276 138.493801 
L 337.229669 138.326551 
L 336.861636 138.279417 
L 336.861636 138.224998 
L 336.788029 138.227378 
L 336.788029 137.919421 
L 336.493602 137.846182 
L 336.493602 137.814071 
L 336.493602 137.710677 
L 336.419996 137.712955 
L 335.978356 137.60909 
L 335.978356 137.611351 
L 335.904749 137.521165 
L 335.831142 137.521165 
L 335.831142 137.419181 
L 335.831142 137.349575 
L 335.757535 137.351784 
L 335.536715 137.356205 
L 335.536715 137.242098 
L 335.536715 137.113837 
L 335.463109 137.115999 
L 335.315895 137.129841 
L 335.315895 137.015077 
L 335.242289 136.380968 
L 335.021469 136.290008 
L 335.021469 136.280112 
L 334.947862 136.198794 
L 334.874255 136.198794 
L 334.874255 136.093434 
L 334.800649 135.975835 
L 334.506222 135.873713 
L 334.506222 135.875618 
L 334.432615 135.733237 
L 334.211795 135.712892 
L 334.211795 135.630315 
L 334.138188 135.57175 
L 333.990975 135.50098 
L 333.990975 135.466455 
L 333.917368 135.322576 
L 333.622942 135.21833 
L 333.622942 135.220098 
L 333.549335 134.989582 
L 333.475728 134.989582 
L 333.475728 134.880881 
L 333.402122 134.697977 
L 333.181302 134.688953 
L 333.181302 134.591795 
L 333.181302 134.554693 
L 333.107695 134.568691 
L 332.960481 134.582692 
L 332.960481 134.460432 
L 332.886875 134.225773 
L 332.371628 134.122659 
L 332.371628 134.124191 
L 332.298021 133.849717 
L 332.150808 133.775643 
L 332.150808 133.739275 
L 332.077201 133.563816 
L 331.856381 133.465226 
L 331.856381 133.45392 
L 331.856381 133.288641 
L 331.782775 133.302721 
L 331.561954 133.216167 
L 331.561954 133.191962 
L 331.488348 133.129382 
L 331.120314 133.044947 
L 331.120314 133.020582 
L 331.046708 132.880499 
L 330.899494 132.894624 
L 330.899494 132.779909 
L 330.825888 132.600187 
L 330.678674 132.614326 
L 330.678674 132.498839 
L 330.605068 132.500007 
L 330.605068 132.422058 
L 330.310641 132.334359 
L 330.310641 132.322451 
L 330.237034 131.851983 
L 330.163428 131.851983 
L 330.163428 131.747605 
L 330.089821 131.748597 
L 330.089821 131.722209 
L 329.353754 131.651689 
L 329.353754 131.612901 
L 329.280147 131.494379 
L 329.132934 131.44211 
L 329.132934 131.389763 
L 329.132934 131.122622 
L 329.059327 131.136859 
L 328.912114 131.030452 
L 328.912114 131.031275 
L 328.838507 130.938029 
L 328.617687 130.872304 
L 328.617687 130.832644 
L 328.617687 130.805662 
L 328.54408 130.806432 
L 328.470474 130.806432 
L 328.470474 130.699089 
L 328.470474 130.536511 
L 328.396867 130.537215 
L 328.32326 130.537215 
L 328.32326 130.429208 
L 328.249654 130.211751 
L 328.10244 130.19871 
L 328.10244 130.103548 
L 328.028834 129.884521 
L 327.734407 129.817287 
L 327.734407 129.776442 
L 327.6608 129.680277 
L 327.292767 129.640725 
L 327.292767 129.571905 
L 327.21916 129.447371 
L 326.703913 129.380318 
L 326.703913 129.33888 
L 326.703913 129.283019 
L 326.630307 129.297389 
L 326.483093 129.297788 
L 326.483093 129.200244 
L 326.409487 129.200619 
L 326.409487 129.158579 
L 326.33588 129.158579 
L 326.33588 129.060699 
L 326.33588 128.920042 
L 326.262273 128.934431 
L 326.188667 128.934431 
L 326.188667 128.836039 
L 326.11506 128.553265 
L 325.967847 128.496675 
L 325.967847 128.45422 
L 325.89424 128.040296 
L 325.67342 128.011764 
L 325.67342 127.940028 
L 325.67342 127.853736 
L 325.599813 127.868161 
L 325.4526 127.853796 
L 325.4526 127.767332 
L 325.378993 127.637311 
L 325.305386 127.637311 
L 325.305386 127.535912 
L 325.23178 127.390682 
L 325.084566 127.376048 
L 325.084566 127.288595 
L 325.01096 127.025507 
L 324.79014 126.966494 
L 324.79014 126.92226 
L 324.716533 126.877968 
L 324.56932 126.818902 
L 324.56932 126.774477 
L 324.495713 126.626656 
L 324.054073 126.521517 
L 324.054073 126.521194 
L 323.980466 126.446666 
L 323.759646 126.386513 
L 323.759646 126.341499 
L 323.686039 126.326232 
L 323.538826 126.296043 
L 323.538826 126.221037 
L 323.465219 126.115966 
L 323.391613 126.115966 
L 323.391613 126.010643 
L 323.318006 125.70933 
L 323.170793 125.618192 
L 323.170793 125.602506 
L 323.170793 125.587385 
L 323.097186 125.601933 
L 323.023579 125.601933 
L 323.023579 125.495367 
L 322.949973 125.434091 
L 322.655546 125.386646 
L 322.655546 125.325159 
L 322.581939 125.187308 
L 322.213906 125.077493 
L 322.213906 125.076773 
L 322.213906 125.015488 
L 322.140299 125.030083 
L 321.845872 124.920385 
L 321.845872 124.919621 
L 321.772266 124.440062 
L 321.698659 124.440062 
L 321.698659 124.330459 
L 321.625052 124.220586 
L 321.183412 124.137726 
L 321.183412 124.121113 
L 321.109805 124.0732 
L 320.668165 123.989775 
L 320.668165 123.973048 
L 320.594559 123.846243 
L 319.932098 123.806109 
L 319.932098 123.741839 
L 319.858492 123.534841 
L 319.490458 123.482516 
L 319.490458 123.43361 
L 319.416852 123.241056 
L 319.122425 123.157318 
L 319.122425 123.140028 
L 319.048818 122.930071 
L 318.901605 122.880454 
L 318.901605 122.830767 
L 318.827998 122.813273 
L 318.533572 122.809146 
L 318.533572 122.710815 
L 318.459965 122.596057 
L 318.386358 122.596057 
L 318.386358 122.497252 
L 318.312751 122.414497 
L 318.018325 122.328541 
L 318.018325 122.310707 
L 317.944718 122.194829 
L 317.650291 122.190144 
L 317.650291 122.090269 
L 317.576685 122.039442 
L 317.282258 121.968846 
L 317.282258 121.934294 
L 317.208651 121.800741 
L 316.987831 121.797377 
L 316.987831 121.696475 
L 316.914224 121.645074 
L 316.840618 121.645074 
L 316.840618 121.543813 
L 316.767011 121.442321 
L 316.693404 121.442321 
L 316.693404 121.340598 
L 316.619798 120.886827 
L 316.398978 120.849269 
L 316.398978 120.779944 
L 316.398978 120.594328 
L 316.325371 120.609181 
L 316.104551 120.571254 
L 316.104551 120.501451 
L 316.030944 120.397576 
L 315.957338 120.397576 
L 315.957338 120.293462 
L 315.883731 120.274293 
L 315.221271 120.25704 
L 315.221271 120.169456 
L 315.147664 120.047431 
L 314.853237 120.023588 
L 314.853237 119.95266 
L 314.779631 119.916014 
L 314.411597 119.889698 
L 314.411597 119.818456 
L 314.337991 119.574087 
L 314.11717 119.482576 
L 314.11717 119.480165 
L 314.11717 119.37587 
L 314.043564 119.390825 
L 313.601924 119.326305 
L 313.601924 119.288937 
L 313.528317 118.971316 
L 313.307497 118.895855 
L 313.307497 118.875657 
L 313.307497 118.769983 
L 313.23389 118.78497 
L 313.086677 118.799961 
L 313.086677 118.691426 
L 313.086677 118.532224 
L 313.01307 118.547218 
L 312.939464 118.547218 
L 312.939464 118.438094 
L 312.939464 118.402583 
L 312.865857 118.417582 
L 312.57143 118.32034 
L 312.57143 118.317546 
L 312.497823 118.172055 
L 312.424217 118.172055 
L 312.424217 118.061933 
L 312.35061 117.807909 
L 311.835363 117.808121 
L 311.835363 117.696987 
L 311.761757 117.657873 
L 311.320117 117.606581 
L 311.320117 117.549198 
L 311.24651 117.419106 
L 311.172903 117.419106 
L 311.172903 117.325072 
L 311.099296 117.176115 
L 310.878476 117.133215 
L 310.878476 117.075156 
L 310.80487 117.053635 
L 310.731263 117.053635 
L 310.731263 116.958775 
L 310.657656 116.790171 
L 310.068803 116.693131 
L 310.068803 116.689779 
L 309.995196 116.649465 
L 309.92159 116.649465 
L 309.92159 116.55357 
L 309.847983 116.36463 
L 309.406343 116.254147 
L 309.406343 116.269286 
L 309.332736 116.17247 
L 308.891096 116.117342 
L 308.891096 116.076319 
L 308.817489 116.035246 
L 308.743883 116.035246 
L 308.743883 115.937779 
L 308.743883 115.918986 
L 308.670276 115.934156 
L 308.596669 115.934156 
L 308.596669 115.836445 
L 308.523063 115.587401 
L 308.375849 115.602574 
L 308.375849 115.485206 
L 308.302242 115.386542 
L 308.081422 115.32187 
L 308.081422 115.279962 
L 308.007816 114.836471 
L 307.860602 114.736442 
L 307.860602 114.732399 
L 307.786996 114.632116 
L 307.566176 114.585388 
L 307.566176 114.523378 
L 307.566176 114.465414 
L 307.271749 114.433627 
L 307.271749 114.371353 
L 307.198142 114.231308 
L 306.977322 114.2034 
L 306.977322 114.140761 
L 306.977322 114.101798 
L 306.830109 114.101798 
L 306.830109 114.015187 
L 306.756502 113.893572 
L 306.388469 113.880502 
L 306.388469 113.754043 
L 43.318182 113.690118 
L 43.318182 17.083636 
L 43.318182 17.083636 
" clip-path="url(#p538cca5324)" style="fill: none; stroke: #ff7f00; stroke-opacity: 0.8; stroke-width: 1.75; stroke-linecap: round"/>
   </g>
   <g id="line2d_26">
    <path d="M 347.681818 186.099506 
L 345.159468 186.099506 
L 345.05437 171.483021 
L 344.844174 171.47109 
L 344.844174 171.374365 
L 344.739076 170.711909 
L 344.423782 170.679682 
L 344.423782 170.601987 
L 344.318684 170.611155 
L 344.318684 169.952436 
L 344.108488 169.917181 
L 344.108488 169.844791 
L 344.00339 169.27782 
L 343.898292 169.294435 
L 343.898292 169.173527 
L 343.793194 169.17502 
L 343.793194 169.07644 
L 343.688096 169.07644 
L 343.688096 168.971394 
L 343.688096 168.90275 
L 343.582998 168.911797 
L 343.477901 168.928483 
L 343.477901 168.806119 
L 343.372803 168.522786 
L 343.267705 168.522786 
L 343.267705 168.415708 
L 343.162607 168.097549 
L 343.057509 168.114364 
L 343.057509 167.988935 
L 342.952411 167.903543 
L 342.742215 167.833673 
L 342.742215 167.795248 
L 342.637117 167.661632 
L 342.321823 167.592123 
L 342.321823 167.553295 
L 342.216725 167.394467 
L 341.796334 167.333092 
L 341.796334 167.285775 
L 341.691236 167.068734 
L 341.586138 167.085762 
L 341.586138 166.964118 
L 341.48104 165.926139 
L 341.375942 165.926139 
L 341.375942 165.817655 
L 341.375942 165.632556 
L 341.270844 165.649779 
L 341.060648 165.616373 
L 341.060648 165.54061 
L 341.060648 165.506733 
L 340.95555 165.52399 
L 340.745354 165.413961 
L 340.745354 165.414237 
L 340.640256 165.423019 
L 340.640256 165.363438 
L 340.43006 165.278382 
L 340.43006 165.252969 
L 340.324962 164.658205 
L 340.114766 164.666912 
L 340.114766 164.55369 
L 340.009669 164.562391 
L 340.009669 164.544937 
L 339.484179 164.571041 
L 339.484179 164.439713 
L 339.379081 164.395758 
L 339.273983 164.404462 
L 339.273983 164.290092 
L 339.168885 163.784117 
L 338.958689 163.694324 
L 338.958689 163.685025 
L 338.853591 163.342318 
L 338.748493 163.342318 
L 338.748493 163.233044 
L 338.643395 162.433837 
L 338.433199 162.349408 
L 338.433199 162.329958 
L 338.328101 162.076814 
L 338.117906 162.047727 
L 338.117906 161.971587 
L 338.012808 160.756334 
L 337.487318 160.682361 
L 337.487318 160.651618 
L 337.38222 159.970755 
L 337.172024 159.909326 
L 337.172024 159.867692 
L 337.066926 159.726063 
L 336.961828 159.726063 
L 336.961828 159.623979 
L 336.85673 159.420786 
L 336.121045 159.337929 
L 336.121045 159.315617 
L 336.015947 159.283123 
L 335.700653 159.18744 
L 335.700653 159.17515 
L 335.595555 159.183242 
L 335.595555 159.111818 
L 335.490457 159.111818 
L 335.490457 159.007385 
L 335.385359 158.892327 
L 335.280261 158.91066 
L 335.280261 158.78716 
L 335.175163 158.328564 
L 335.070065 158.328564 
L 335.070065 158.221618 
L 334.964967 158.229576 
L 334.964967 158.1248 
L 334.859869 158.1248 
L 334.859869 158.017157 
L 334.754771 157.708095 
L 334.544576 157.715977 
L 334.544576 157.606967 
L 334.439478 157.529596 
L 334.229282 157.419934 
L 334.229282 157.42778 
L 334.124184 157.28551 
L 333.703792 157.233703 
L 333.703792 157.17686 
L 333.598694 156.979173 
L 333.493596 156.979173 
L 333.493596 156.878365 
L 333.493596 156.867489 
L 333.388498 156.886141 
L 333.388498 156.875264 
L 333.2834 156.875264 
L 333.2834 156.774086 
L 333.178302 156.727254 
L 332.968106 156.724083 
L 332.968106 156.622364 
L 332.863009 156.520318 
L 332.547715 156.49177 
L 332.547715 156.411315 
L 332.442617 156.175493 
L 332.337519 156.194279 
L 332.337519 156.071976 
L 332.232421 155.979287 
L 332.022225 155.953429 
L 332.022225 155.871565 
L 331.917127 155.688304 
L 331.812029 155.688304 
L 331.812029 155.583185 
L 331.706931 155.387054 
L 331.391637 155.277141 
L 331.391637 155.284687 
L 331.286539 155.052391 
L 331.076344 154.979629 
L 331.076344 154.952673 
L 330.971246 154.764344 
L 330.76105 154.67932 
L 330.76105 154.663613 
L 330.655952 154.017258 
L 330.550854 154.017258 
L 330.550854 153.906739 
L 330.550854 153.634431 
L 330.445756 153.641691 
L 330.23556 153.565697 
L 330.23556 153.53721 
L 330.130462 153.448989 
L 329.815168 153.39169 
L 329.815168 153.339004 
L 329.71007 153.346225 
L 329.71007 153.286214 
L 329.499874 153.305438 
L 329.499874 153.18032 
L 329.394776 153.078914 
L 329.184581 153.037726 
L 329.184581 152.972233 
L 329.079483 152.614119 
L 328.764189 152.505808 
L 328.764189 152.512885 
L 328.659091 151.476518 
L 328.553993 151.476518 
L 328.553993 151.37006 
L 328.448895 151.376909 
L 328.448895 151.047781 
L 328.238699 151.01642 
L 328.238699 150.946794 
L 328.133601 150.595149 
L 328.028503 150.595149 
L 328.028503 150.48599 
L 327.923405 150.41524 
L 327.608112 150.325075 
L 327.608112 150.305805 
L 327.503014 150.247578 
L 327.082622 150.150404 
L 327.082622 150.143991 
L 326.977524 149.875997 
L 326.66223 149.784015 
L 326.66223 149.777403 
L 326.557132 149.559591 
L 326.346936 149.526373 
L 326.346936 149.453306 
L 326.241838 149.24687 
L 326.13674 149.266649 
L 326.13674 149.146442 
L 326.13674 149.07952 
L 326.031642 149.085923 
L 325.611251 148.997773 
L 325.611251 148.977275 
L 325.506153 148.794925 
L 325.190859 148.74 
L 325.190859 148.692152 
L 325.085761 148.562689 
L 324.770467 148.479959 
L 324.770467 148.458966 
L 324.665369 148.328546 
L 324.455173 148.321112 
L 324.455173 148.217621 
L 324.350075 148.223862 
L 324.350075 147.809798 
L 324.139879 147.704857 
L 324.139879 147.710981 
L 324.034782 147.535924 
L 323.824586 147.430125 
L 323.824586 147.43619 
L 323.719488 147.40021 
L 323.404194 147.38427 
L 323.404194 147.291936 
L 323.299096 147.227547 
L 323.0889 147.219474 
L 323.0889 147.126638 
L 323.0889 146.80028 
L 322.983802 146.806209 
L 322.878704 146.826387 
L 322.878704 146.698022 
L 322.773606 146.374164 
L 322.56341 146.336795 
L 322.56341 146.270512 
L 322.458312 145.826615 
L 321.932823 145.717916 
L 321.932823 145.723596 
L 321.827725 145.612001 
L 321.302235 145.531684 
L 321.302235 145.50786 
L 321.197137 145.454493 
L 321.092039 145.454493 
L 321.092039 145.356649 
L 320.986941 145.362256 
L 320.986941 145.16943 
L 320.671647 145.180554 
L 320.671647 145.066968 
L 320.566549 144.833224 
L 320.356354 144.823705 
L 320.356354 144.724023 
L 320.251256 144.578798 
L 319.935962 144.544319 
L 319.935962 144.474078 
L 319.830864 143.976938 
L 319.51557 143.956831 
L 319.51557 143.870014 
L 319.410472 143.705927 
L 319.200276 143.71113 
L 319.200276 143.608205 
L 319.095178 143.504977 
L 318.884982 143.401444 
L 318.884982 143.406572 
L 318.884982 143.188391 
L 318.779884 143.193462 
L 318.569689 143.151628 
L 318.569689 143.094058 
L 318.464591 142.610744 
L 318.359493 142.610744 
L 318.359493 142.504662 
L 318.359493 142.472901 
L 318.254395 142.477783 
L 317.939101 142.376131 
L 317.939101 142.380992 
L 317.834003 142.081933 
L 317.623807 141.974225 
L 317.623807 141.978978 
L 317.518709 141.903177 
L 317.203415 141.815751 
L 317.203415 141.804292 
L 317.098317 141.581939 
L 316.783024 141.493546 
L 316.783024 141.481868 
L 316.783024 141.367567 
L 316.677926 141.372161 
L 316.257534 141.353218 
L 316.257534 141.275831 
L 316.152436 141.214702 
L 315.311652 141.164265 
L 315.311652 141.119286 
L 315.206554 140.974875 
L 314.891261 140.967301 
L 314.891261 140.888755 
L 314.786163 140.760022 
L 314.575967 140.760022 
L 314.575967 140.702138 
L 314.575967 140.551535 
L 43.318182 140.551535 
L 43.318182 17.083636 
L 43.318182 17.083636 
" clip-path="url(#p538cca5324)" style="fill: none; stroke: #a65628; stroke-opacity: 0.8; stroke-width: 1.75; stroke-linecap: round"/>
   </g>
   <g id="line2d_27">
    <path d="M 347.681818 200.798109 
L 342.272858 200.798109 
L 342.272858 71.881799 
L 342.12667 71.881799 
L 342.12667 71.779322 
L 342.12667 67.11085 
L 341.980482 67.11085 
L 341.980482 66.999957 
L 341.980482 66.804822 
L 341.834294 66.804822 
L 341.834294 66.758537 
L 341.834294 61.864265 
L 341.688106 61.864265 
L 341.688106 61.81276 
L 341.688106 60.841012 
L 341.541918 60.841012 
L 341.541918 60.788378 
L 341.541918 60.368177 
L 341.39573 60.368177 
L 341.39573 60.315004 
L 341.39573 60.103928 
L 341.249542 60.103928 
L 341.249542 60.05044 
L 341.249542 59.697146 
L 341.103353 59.697146 
L 341.103353 59.643188 
L 341.103353 52.646377 
L 340.957165 52.646377 
L 340.957165 52.584445 
L 340.957165 48.752528 
L 340.810977 48.752528 
L 340.810977 48.685986 
L 340.810977 48.044541 
L 340.664789 48.044541 
L 340.664789 47.977118 
L 340.664789 45.777188 
L 340.518601 45.777188 
L 340.518601 45.706985 
L 340.518601 44.461169 
L 340.226225 44.472974 
L 340.226225 44.401101 
L 340.226225 43.897443 
L 340.080037 43.897443 
L 340.080037 43.824822 
L 340.080037 43.571697 
L 339.78766 43.498636 
L 339.78766 43.510106 
L 339.78766 43.086078 
L 339.641472 43.086078 
L 339.641472 43.012339 
L 339.641472 42.243459 
L 339.349096 42.254465 
L 339.349096 42.17961 
L 339.349096 40.882473 
L 339.202908 40.882473 
L 339.202908 40.805846 
L 339.202908 40.456597 
L 338.764344 40.389699 
L 338.764344 40.400016 
L 338.764344 40.136727 
L 338.618156 40.136727 
L 338.618156 40.058997 
L 338.618156 39.882856 
L 338.471968 39.882856 
L 338.471968 39.804762 
L 338.471968 39.451087 
L 338.325779 39.451087 
L 338.325779 39.3724 
L 338.325779 38.838832 
L 43.318182 38.838832 
L 43.318182 17.083636 
L 43.318182 17.083636 
" clip-path="url(#p538cca5324)" style="fill: none; stroke: #999999; stroke-opacity: 0.8; stroke-width: 1.75; stroke-linecap: round"/>
   </g>
   <g id="line2d_28">
    <path d="M 28.1 124.444923 
L 362.9 124.444923 
" clip-path="url(#p538cca5324)" style="fill: none; stroke-dasharray: 6.475,2.8; stroke-dashoffset: 0; stroke: #ca0b03; stroke-width: 1.75"/>
   </g>
   <g id="patch_3">
    <path d="M 28.1 224.64 
L 28.1 7.2 
" style="fill: none; stroke: #cccccc; stroke-width: 1.25; stroke-linejoin: miter; stroke-linecap: square"/>
   </g>
   <g id="patch_4">
    <path d="M 362.9 224.64 
L 362.9 7.2 
" style="fill: none; stroke: #cccccc; stroke-width: 1.25; stroke-linejoin: miter; stroke-linecap: square"/>
   </g>
   <g id="patch_5">
    <path d="M 28.1 224.64 
L 362.9 224.64 
" style="fill: none; stroke: #cccccc; stroke-width: 1.25; stroke-linejoin: miter; stroke-linecap: square"/>
   </g>
   <g id="patch_6">
    <path d="M 28.1 7.2 
L 362.9 7.2 
" style="fill: none; stroke: #cccccc; stroke-width: 1.25; stroke-linejoin: miter; stroke-linecap: square"/>
   </g>
  </g>
 </g>
 <defs>
  <clipPath id="p538cca5324">
   <rect x="28.1" y="7.2" width="334.8" height="217.44"/>
  </clipPath>
 </defs>
</svg>
